999
dxfrw 0.6.3
  0
SECTION
  2
HEADER
  9
$ACADVER
  1
AC1021
  9
$DWGCODEPAGE
  3
ANSI_1252
  9
$INSBASE
 10
0
 20
0
 30
0
  9
$EXTMIN
 10
0
 20
0
 30
0
  9
$EXTMAX
 10
420
 20
297
 30
0
  9
$LIMMIN
 10
0
 20
0
  9
$LIMMAX
 10
420
 20
297
  9
$ORTHOMODE
 70
    0
  9
$REGENMODE
 70
    1
  9
$FILLMODE
 70
    1
  9
$QTEXTMODE
 70
    0
  9
$MIRRTEXT
 70
    0
  9
$LTSCALE
 40
1
  9
$ATTMODE
 70
    0
  9
$TEXTSIZE
 40
2.5
  9
$TRACEWID
 40
15.68
  9
$TEXTSTYLE
  7
STANDARD
  9
$CLAYER
  8
decoder
  9
$CELTYPE
  6
BYLAYER
  9
$CECOLOR
 62
  256
  9
$CELTSCALE
 40
1
  9
$DISPSILH
 70
    0
  9
$DIMSCALE
 40
1
  9
$DIMASZ
 40
5
  9
$DIMEXO
 40
0.625
  9
$DIMDLI
 40
3.75
  9
$DIMRND
 40
0
  9
$DIMDLE
 40
0
  9
$DIMEXE
 40
1.25
  9
$DIMTP
 40
0
  9
$DIMTM
 40
0
  9
$DIMTXT
 40
2.5
  9
$DIMCEN
 40
2.5
  9
$DIMTSZ
 40
0
  9
$DIMTOL
 70
    0
  9
$DIMLIM
 70
    0
  9
$DIMTIH
 70
    0
  9
$DIMTOH
 70
    0
  9
$DIMSE1
 70
    0
  9
$DIMSE2
 70
    0
  9
$DIMTAD
 70
    1
  9
$DIMZIN
 70
    8
  9
$DIMBLK
  1

  9
$DIMASO
 70
    1
  9
$DIMSHO
 70
    1
  9
$DIMPOST
  1

  9
$DIMAPOST
  1

  9
$DIMALT
 70
    0
  9
$DIMALTD
 70
    3
  9
$DIMALTF
 40
0.03937
  9
$DIMLFAC
 40
1
  9
$DIMTOFL
 70
    1
  9
$DIMTVP
 40
0
  9
$DIMTIX
 70
    0
  9
$DIMSOXD
 70
    0
  9
$DIMSAH
 70
    0
  9
$DIMBLK1
  1

  9
$DIMBLK2
  1

  9
$DIMSTYLE
  2
STANDARD
  9
$DIMCLRD
 70
    0
  9
$DIMCLRE
 70
    0
  9
$DIMCLRT
 70
    0
  9
$DIMTFAC
 40
1
  9
$DIMGAP
 40
0.625
  9
$DIMJUST
 70
    0
  9
$DIMSD1
 70
    0
  9
$DIMSD2
 70
    0
  9
$DIMTOLJ
 70
    0
  9
$DIMTZIN
 70
    8
  9
$DIMALTZ
 70
    0
  9
$DIMALTTZ
 70
    0
  9
$DIMUPT
 70
    0
  9
$DIMDEC
 70
    4
  9
$DIMTDEC
 70
    2
  9
$DIMALTU
 70
    2
  9
$DIMALTTD
 70
    3
  9
$DIMTXSTY
  7
standard
  9
$DIMAUNIT
 70
    0
  9
$DIMADEC
 70
    2
  9
$DIMALTRND
 40
0
  9
$DIMAZIN
 70
    0
  9
$DIMDSEP
 70
    0
  9
$DIMATFIT
 70
    3
  9
$DIMFRAC
 70
    0
  9
$DIMLDRBLK
  1
STANDARD
  9
$DIMLUNIT
 70
    2
  9
$DIMLWD
 70
   -2
  9
$DIMLWE
 70
   -2
  9
$DIMTMOVE
 70
    0
  9
$DIMFXL
 40
1
  9
$DIMFXLON
 70
    0
  9
$DIMJOGANG
 40
0.7854
  9
$DIMTFILL
 70
    0
  9
$DIMTFILLCLR
 70
    0
  9
$DIMARCSYM
 70
    0
  9
$DIMLTYPE
  6

  9
$DIMLTEX1
  6

  9
$DIMLTEX2
  6

  9
$LUNITS
 70
    2
  9
$LUPREC
 70
    4
  9
$SKETCHINC
 40
1
  9
$FILLETRAD
 40
0
  9
$AUNITS
 70
    0
  9
$AUPREC
 70
    2
  9
$MENU
  1
.
  9
$ELEVATION
 40
0
  9
$PELEVATION
 40
0
  9
$THICKNESS
 40
0
  9
$LIMCHECK
 70
    0
  9
$CHAMFERA
 40
0
  9
$CHAMFERB
 40
0
  9
$CHAMFERC
 40
0
  9
$CHAMFERD
 40
0
  9
$SKPOLY
 70
    0
  9
$USRTIMER
 70
    1
  9
$ANGBASE
 50
0
  9
$ANGDIR
 70
    0
  9
$PDMODE
 70
   34
  9
$PDSIZE
 40
0
  9
$PLINEWID
 40
0
  9
$SPLFRAME
 70
    0
  9
$SPLINETYPE
 70
    2
  9
$SPLINESEGS
 70
    8
  9
$HANDSEED
  5
20000
  9
$SURFTAB1
 70
    6
  9
$SURFTAB2
 70
    6
  9
$SURFTYPE
 70
    6
  9
$SURFU
 70
    6
  9
$SURFV
 70
    6
  9
$UCSBASE
  2

  9
$UCSNAME
  2

  9
$UCSORG
 10
0
 20
0
 30
0
  9
$UCSXDIR
 10
1
 20
0
 30
0
  9
$UCSYDIR
 10
0
 20
1
 30
0
  9
$UCSORTHOREF
  2

  9
$UCSORTHOVIEW
 70
    0
  9
$UCSORGTOP
 10
0
 20
0
 30
0
  9
$UCSORGBOTTOM
 10
0
 20
0
 30
0
  9
$UCSORGLEFT
 10
0
 20
0
 30
0
  9
$UCSORGRIGHT
 10
0
 20
0
 30
0
  9
$UCSORGFRONT
 10
0
 20
0
 30
0
  9
$UCSORGBACK
 10
0
 20
0
 30
0
  9
$PUCSBASE
  2

  9
$PUCSNAME
  2

  9
$PUCSORG
 10
0
 20
0
 30
0
  9
$PUCSXDIR
 10
1
 20
0
 30
0
  9
$PUCSYDIR
 10
0
 20
1
 30
0
  9
$PUCSORTHOREF
  2

  9
$PUCSORTHOVIEW
 70
    0
  9
$PUCSORGTOP
 10
0
 20
0
 30
0
  9
$PUCSORGBOTTOM
 10
0
 20
0
 30
0
  9
$PUCSORGLEFT
 10
0
 20
0
 30
0
  9
$PUCSORGRIGHT
 10
0
 20
0
 30
0
  9
$PUCSORGFRONT
 10
0
 20
0
 30
0
  9
$PUCSORGBACK
 10
0
 20
0
 30
0
  9
$USERI1
 70
    0
  9
$USERI2
 70
    0
  9
$USERI3
 70
    0
  9
$USERI4
 70
    0
  9
$USERI5
 70
    0
  9
$USERR1
 40
0
  9
$USERR2
 40
0
  9
$USERR3
 40
0
  9
$USERR4
 40
0
  9
$USERR5
 40
0
  9
$WORLDVIEW
 70
    1
  9
$SHADEDGE
 70
    3
  9
$SHADEDIF
 70
   70
  9
$TILEMODE
 70
    1
  9
$MAXACTVP
 70
   64
  9
$PINSBASE
 10
0
 20
0
 30
0
  9
$PLIMCHECK
 70
    0
  9
$PEXTMIN
 10
0
 20
0
 30
0
  9
$PEXTMAX
 10
0
 20
0
 30
0
  9
$GRIDMODE
 70
    1
  9
$SNAPSTYLE
 70
    0
  9
$GRIDUNIT
 10
0
 20
0
  9
$PLIMMIN
 10
0
 20
0
  9
$PLIMMAX
 10
420
 20
297
  9
$UNITMODE
 70
    0
  9
$VISRETAIN
 70
    1
  9
$PLINEGEN
 70
    0
  9
$PSLTSCALE
 70
    1
  9
$TREEDEPTH
 70
 3020
  9
$CMLSTYLE
  2
Standard
  9
$CMLJUST
 70
    0
  9
$CMLSCALE
 40
20
  9
$PROXYGRAPHICS
 70
    1
  9
$MEASUREMENT
 70
    1
  9
$CELWEIGHT
370
   -1
  9
$ENDCAPS
280
    0
  9
$JOINSTYLE
280
    0
  9
$LWDISPLAY
290
    0
  9
$INSUNITS
 70
    4
  9
$HYPERLINKBASE
  1

  9
$STYLESHEET
  1

  9
$XEDIT
290
    1
  9
$CEPSNTYPE
380
    0
  9
$PSTYLEMODE
290
    1
  9
$EXTNAMES
290
    1
  9
$PSVPSCALE
 40
1
  9
$OLESTARTUP
290
    0
  9
$SORTENTS
280
  127
  9
$INDEXCTL
280
    0
  9
$HIDETEXT
280
    1
  9
$XCLIPFRAME
290
    0
  9
$HALOGAP
280
    0
  9
$OBSCOLOR
 70
  257
  9
$OBSLTYPE
280
    0
  9
$INTERSECTIONDISPLAY
280
    0
  9
$INTERSECTIONCOLOR
 70
  257
  9
$DIMASSOC
280
    1
  9
$PROJECTNAME
  1

  9
$CAMERADISPLAY
290
    0
  9
$LENSLENGTH
 40
50
  9
$CAMERAHEIGHT
 40
0
  9
$STEPSPERSEC
 40
2
  9
$STEPSIZE
 40
50
  9
$3DDWFPREC
 40
2
  9
$PSOLWIDTH
 40
5
  9
$PSOLHEIGHT
 40
80
  9
$LOFTANG1
 40
1.570796326794897
  9
$LOFTANG2
 40
1.570796326794897
  9
$LOFTMAG1
 40
0
  9
$LOFTMAG2
 40
0
  9
$LOFTPARAM
 70
    7
  9
$LOFTNORMALS
280
    1
  9
$LATITUDE
 40
1
  9
$LONGITUDE
 40
1
  9
$NORTHDIRECTION
 40
0
  9
$TIMEZONE
 70
-8000
  9
$LIGHTGLYPHDISPLAY
280
    1
  9
$TILEMODELIGHTSYNCH
280
    1
  9
$SOLIDHIST
280
    1
  9
$SHOWHIST
280
    1
  9
$DWFFRAME
280
    2
  9
$DGNFRAME
280
    0
  9
$REALWORLDSCALE
290
    1
  9
$INTERFERECOLOR
 62
    1
  9
$CSHADOW
280
    0
  9
$SHADOWPLANELOCATION
 40
0
  0
ENDSEC
  0
SECTION
  2
CLASSES
  0
ENDSEC
  0
SECTION
  2
TABLES
  0
TABLE
  2
VPORT
  5
8
330
0
100
AcDbSymbolTable
 70
    1
  0
VPORT
  5
31
330
2
100
AcDbSymbolTableRecord
100
AcDbViewportTableRecord
  2
*ACTIVE
 70
    0
 10
0
 20
0
 11
1
 21
1
 12
227.5160107936599
 22
181.2093134295228
 13
0
 23
0
 14
10
 24
10
 15
10
 25
10
 16
0
 26
0
 36
1
 17
0
 27
0
 37
0
 40
319.2836210951919
 41
1.886092715231788
 42
50
 43
0
 44
0
 50
0
 51
0
 71
    0
 72
  100
 73
    1
 74
    3
 75
    0
 76
    1
 77
    0
 78
    0
281
    0
 65
    1
110
0
120
0
130
0
111
1
121
0
131
0
112
0
122
1
132
0
 79
    0
146
0
348
10020
 60
    7
 61
    5
292
1
282
    1
141
0
142
0
 63
  250
421
3358443
  0
ENDTAB
  0
TABLE
  2
LTYPE
  5
5
330
0
100
AcDbSymbolTable
 70
    4
  0
LTYPE
  5
14
330
5
100
AcDbSymbolTableRecord
100
AcDbLinetypeTableRecord
  2
ByBlock
 70
    0
  3

 72
   65
 73
    0
 40
0
  0
LTYPE
  5
15
330
5
100
AcDbSymbolTableRecord
100
AcDbLinetypeTableRecord
  2
ByLayer
 70
    0
  3

 72
   65
 73
    0
 40
0
  0
LTYPE
  5
16
330
5
100
AcDbSymbolTableRecord
100
AcDbLinetypeTableRecord
  2
Continuous
 70
    0
  3
Solid line
 72
   65
 73
    0
 40
0
  0
LTYPE
  5
32
330
5
100
AcDbSymbolTableRecord
100
AcDbLinetypeTableRecord
  2
DOT
 70
    0
  3
Dot . . . . . . . . . . . . . . . . . . . . . .
 72
   65
 73
    2
 40
6.35
 49
0
 74
    0
 49
-6.35
 74
    0
  0
LTYPE
  5
33
330
5
100
AcDbSymbolTableRecord
100
AcDbLinetypeTableRecord
  2
DOTTINY
 70
    0
  3
Dot (.15x) .....................................
 72
   65
 73
    2
 40
0.9525
 49
0
 74
    0
 49
-0.9525
 74
    0
  0
LTYPE
  5
34
330
5
100
AcDbSymbolTableRecord
100
AcDbLinetypeTableRecord
  2
DOT2
 70
    0
  3
Dot (.5x) .....................................
 72
   65
 73
    2
 40
3.175
 49
0
 74
    0
 49
-3.175
 74
    0
  0
LTYPE
  5
35
330
5
100
AcDbSymbolTableRecord
100
AcDbLinetypeTableRecord
  2
DOTX2
 70
    0
  3
Dot (2x) .  .  .  .  .  .  .  .  .  .  .  .  .
 72
   65
 73
    2
 40
12.7
 49
0
 74
    0
 49
-12.7
 74
    0
  0
LTYPE
  5
36
330
5
100
AcDbSymbolTableRecord
100
AcDbLinetypeTableRecord
  2
DASHED
 70
    0
  3
Dashed _ _ _ _ _ _ _ _ _ _ _ _ _ _ _ _ _
 72
   65
 73
    2
 40
19.05
 49
12.7
 74
    0
 49
-6.35
 74
    0
  0
LTYPE
  5
37
330
5
100
AcDbSymbolTableRecord
100
AcDbLinetypeTableRecord
  2
DASHEDTINY
 70
    0
  3
Dashed (.15x) _ _ _ _ _ _ _ _ _ _ _ _ _ _ _ _ _
 72
   65
 73
    2
 40
2.8575
 49
1.905
 74
    0
 49
-0.9525
 74
    0
  0
LTYPE
  5
38
330
5
100
AcDbSymbolTableRecord
100
AcDbLinetypeTableRecord
  2
DASHED2
 70
    0
  3
Dashed (.5x) _ _ _ _ _ _ _ _ _ _ _ _ _ _ _ _ _
 72
   65
 73
    2
 40
9.524999999999999
 49
6.35
 74
    0
 49
-3.175
 74
    0
  0
LTYPE
  5
39
330
5
100
AcDbSymbolTableRecord
100
AcDbLinetypeTableRecord
  2
DASHEDX2
 70
    0
  3
Dashed (2x) ____  ____  ____  ____  ____  ___
 72
   65
 73
    2
 40
38.09999999999999
 49
25.4
 74
    0
 49
-12.7
 74
    0
  0
LTYPE
  5
3A
330
5
100
AcDbSymbolTableRecord
100
AcDbLinetypeTableRecord
  2
DASHDOT
 70
    0
  3
Dash dot __ . __ . __ . __ . __ . __ . __ . __
 72
   65
 73
    4
 40
25.4
 49
12.7
 74
    0
 49
-6.35
 74
    0
 49
0
 74
    0
 49
-6.35
 74
    0
  0
LTYPE
  5
3B
330
5
100
AcDbSymbolTableRecord
100
AcDbLinetypeTableRecord
  2
DASHDOTTINY
 70
    0
  3
Dash dot (.15x) _._._._._._._._._._._._._._._.
 72
   65
 73
    4
 40
3.81
 49
1.905
 74
    0
 49
-0.9525
 74
    0
 49
0
 74
    0
 49
-0.9525
 74
    0
  0
LTYPE
  5
3C
330
5
100
AcDbSymbolTableRecord
100
AcDbLinetypeTableRecord
  2
DASHDOT2
 70
    0
  3
Dash dot (.5x) _._._._._._._._._._._._._._._.
 72
   65
 73
    4
 40
12.7
 49
6.35
 74
    0
 49
-3.175
 74
    0
 49
0
 74
    0
 49
-3.175
 74
    0
  0
LTYPE
  5
3D
330
5
100
AcDbSymbolTableRecord
100
AcDbLinetypeTableRecord
  2
DASHDOTX2
 70
    0
  3
Dash dot (2x) ____  .  ____  .  ____  .  ___
 72
   65
 73
    4
 40
50.8
 49
25.4
 74
    0
 49
-12.7
 74
    0
 49
0
 74
    0
 49
-12.7
 74
    0
  0
LTYPE
  5
3E
330
5
100
AcDbSymbolTableRecord
100
AcDbLinetypeTableRecord
  2
DIVIDE
 70
    0
  3
Divide ____ . . ____ . . ____ . . ____ . . ____
 72
   65
 73
    6
 40
31.75
 49
12.7
 74
    0
 49
-6.35
 74
    0
 49
0
 74
    0
 49
-6.35
 74
    0
 49
0
 74
    0
 49
-6.35
 74
    0
  0
LTYPE
  5
3F
330
5
100
AcDbSymbolTableRecord
100
AcDbLinetypeTableRecord
  2
DIVIDETINY
 70
    0
  3
Divide (.15x) __..__..__..__..__..__..__..__.._
 72
   65
 73
    6
 40
4.7625
 49
1.905
 74
    0
 49
-0.9525
 74
    0
 49
0
 74
    0
 49
-0.9525
 74
    0
 49
0
 74
    0
 49
-0.9525
 74
    0
  0
LTYPE
  5
40
330
5
100
AcDbSymbolTableRecord
100
AcDbLinetypeTableRecord
  2
DIVIDE2
 70
    0
  3
Divide (.5x) __..__..__..__..__..__..__..__.._
 72
   65
 73
    6
 40
15.875
 49
6.35
 74
    0
 49
-3.175
 74
    0
 49
0
 74
    0
 49
-3.175
 74
    0
 49
0
 74
    0
 49
-3.175
 74
    0
  0
LTYPE
  5
41
330
5
100
AcDbSymbolTableRecord
100
AcDbLinetypeTableRecord
  2
DIVIDEX2
 70
    0
  3
Divide (2x) ________  .  .  ________  .  .  _
 72
   65
 73
    6
 40
63.5
 49
25.4
 74
    0
 49
-12.7
 74
    0
 49
0
 74
    0
 49
-12.7
 74
    0
 49
0
 74
    0
 49
-12.7
 74
    0
  0
LTYPE
  5
42
330
5
100
AcDbSymbolTableRecord
100
AcDbLinetypeTableRecord
  2
BORDER
 70
    0
  3
Border __ __ . __ __ . __ __ . __ __ . __ __ .
 72
   65
 73
    6
 40
44.45
 49
12.7
 74
    0
 49
-6.35
 74
    0
 49
12.7
 74
    0
 49
-6.35
 74
    0
 49
0
 74
    0
 49
-6.35
 74
    0
  0
LTYPE
  5
43
330
5
100
AcDbSymbolTableRecord
100
AcDbLinetypeTableRecord
  2
BORDERTINY
 70
    0
  3
Border (.15x) __.__.__.__.__.__.__.__.__.__.__.
 72
   65
 73
    6
 40
6.6675
 49
1.905
 74
    0
 49
-0.9525
 74
    0
 49
1.905
 74
    0
 49
-0.9525
 74
    0
 49
0
 74
    0
 49
-0.9525
 74
    0
  0
LTYPE
  5
44
330
5
100
AcDbSymbolTableRecord
100
AcDbLinetypeTableRecord
  2
BORDER2
 70
    0
  3
Border (.5x) __.__.__.__.__.__.__.__.__.__.__.
 72
   65
 73
    6
 40
22.225
 49
6.35
 74
    0
 49
-3.175
 74
    0
 49
6.35
 74
    0
 49
-3.175
 74
    0
 49
0
 74
    0
 49
-3.175
 74
    0
  0
LTYPE
  5
45
330
5
100
AcDbSymbolTableRecord
100
AcDbLinetypeTableRecord
  2
BORDERX2
 70
    0
  3
Border (2x) ____  ____  .  ____  ____  .  ___
 72
   65
 73
    6
 40
88.89999999999999
 49
25.4
 74
    0
 49
-12.7
 74
    0
 49
25.4
 74
    0
 49
-12.7
 74
    0
 49
0
 74
    0
 49
-12.7
 74
    0
  0
LTYPE
  5
46
330
5
100
AcDbSymbolTableRecord
100
AcDbLinetypeTableRecord
  2
CENTER
 70
    0
  3
Center ____ _ ____ _ ____ _ ____ _ ____ _ ____
 72
   65
 73
    4
 40
50.8
 49
31.75
 74
    0
 49
-6.35
 74
    0
 49
6.35
 74
    0
 49
-6.35
 74
    0
  0
LTYPE
  5
47
330
5
100
AcDbSymbolTableRecord
100
AcDbLinetypeTableRecord
  2
CENTERTINY
 70
    0
  3
Center (.15x) ___ _ ___ _ ___ _ ___ _ ___ _ ___
 72
   65
 73
    4
 40
7.619999999999999
 49
4.7625
 74
    0
 49
-0.9525
 74
    0
 49
0.9525
 74
    0
 49
-0.9525
 74
    0
  0
LTYPE
  5
48
330
5
100
AcDbSymbolTableRecord
100
AcDbLinetypeTableRecord
  2
CENTER2
 70
    0
  3
Center (.5x) ___ _ ___ _ ___ _ ___ _ ___ _ ___
 72
   65
 73
    4
 40
28.575
 49
19.05
 74
    0
 49
-3.175
 74
    0
 49
3.175
 74
    0
 49
-3.175
 74
    0
  0
LTYPE
  5
49
330
5
100
AcDbSymbolTableRecord
100
AcDbLinetypeTableRecord
  2
CENTERX2
 70
    0
  3
Center (2x) ________  __  ________  __  _____
 72
   65
 73
    4
 40
101.6
 49
63.5
 74
    0
 49
-12.7
 74
    0
 49
12.7
 74
    0
 49
-12.7
 74
    0
  0
ENDTAB
  0
TABLE
  2
LAYER
  5
2
330
0
100
AcDbSymbolTable
 70
    1
  0
LAYER
  5
10
330
2
100
AcDbSymbolTableRecord
100
AcDbLayerTableRecord
  2
0
 70
    0
 62
    7
  6
CONTINUOUS
370
   35
390
F
  0
LAYER
  5
4A
330
2
100
AcDbSymbolTableRecord
100
AcDbLayerTableRecord
  2
1kx1
 70
    0
 62
    7
  6
CONTINUOUS
370
   40
390
F
  0
LAYER
  5
4B
330
2
100
AcDbSymbolTableRecord
100
AcDbLayerTableRecord
  2
abus
 70
    0
 62
    7
  6
CONTINUOUS
370
   80
390
F
  0
LAYER
  5
4C
330
2
100
AcDbSymbolTableRecord
100
AcDbLayerTableRecord
  2
cbus
 70
    0
 62
    7
  6
CONTINUOUS
370
   80
390
F
  0
LAYER
  5
4D
330
2
100
AcDbSymbolTableRecord
100
AcDbLayerTableRecord
  2
dashed
 70
    0
 62
    7
  6
DASHEDTINY
370
   35
390
F
  0
LAYER
  5
4E
330
2
100
AcDbSymbolTableRecord
100
AcDbLayerTableRecord
  2
dbus
 70
    0
 62
    7
  6
CONTINUOUS
370
   80
390
F
  0
LAYER
  5
4F
330
2
100
AcDbSymbolTableRecord
100
AcDbLayerTableRecord
  2
decoder
 70
    0
 62
    7
  6
CONTINUOUS
370
   40
390
F
  0
LAYER
  5
50
330
2
100
AcDbSymbolTableRecord
100
AcDbLayerTableRecord
  2
dotsbig
 70
    0
 62
    7
  6
CONTINUOUS
370
  211
390
F
  0
LAYER
  5
51
330
2
100
AcDbSymbolTableRecord
100
AcDbLayerTableRecord
  2
osnovn1
 70
    0
 62
    7
  6
CONTINUOUS
370
   50
390
F
  0
LAYER
  5
52
330
2
100
AcDbSymbolTableRecord
100
AcDbLayerTableRecord
  2
paepr
 70
    1
 62
    7
  6
CONTINUOUS
370
   35
390
F
  0
LAYER
  5
53
330
2
100
AcDbSymbolTableRecord
100
AcDbLayerTableRecord
  2
paper2
 70
    0
 62
    7
  6
CONTINUOUS
370
   35
390
F
  0
LAYER
  5
54
330
2
100
AcDbSymbolTableRecord
100
AcDbLayerTableRecord
  2
smol wires
 70
    0
 62
    7
  6
CONTINUOUS
370
   40
390
F
  0
LAYER
  5
55
330
2
100
AcDbSymbolTableRecord
100
AcDbLayerTableRecord
  2
текст
 70
    0
 62
    7
  6
CONTINUOUS
370
   35
390
F
  0
LAYER
  5
56
330
2
100
AcDbSymbolTableRecord
100
AcDbLayerTableRecord
  2
текст1
 70
    0
 62
    7
  6
CONTINUOUS
370
   25
390
F
  0
ENDTAB
  0
TABLE
  2
STYLE
  5
3
330
0
100
AcDbSymbolTable
 70
    3
  0
STYLE
  5
57
330
2
100
AcDbSymbolTableRecord
100
AcDbTextStyleTableRecord
  2
unicode
 70
    0
 40
0
 41
1
 50
0
 71
    0
 42
1
  3
unicode
  4

  0
STYLE
  5
58
330
2
100
AcDbSymbolTableRecord
100
AcDbTextStyleTableRecord
  2
lc_opengost-ar
 70
    0
 40
0
 41
1
 50
0
 71
    0
 42
1
  3
lc_opengost-ar
  4

  0
STYLE
  5
59
330
2
100
AcDbSymbolTableRecord
100
AcDbTextStyleTableRecord
  2
Standard
 70
    0
 40
0
 41
1
 50
0
 71
    0
 42
1
  3
txt
  4

  0
ENDTAB
  0
TABLE
  2
VIEW
  5
6
330
0
100
AcDbSymbolTable
 70
    0
  0
ENDTAB
  0
TABLE
  2
UCS
  5
7
330
0
100
AcDbSymbolTable
 70
    0
  0
ENDTAB
  0
TABLE
  2
APPID
  5
9
330
0
100
AcDbSymbolTable
 70
    1
  0
APPID
  5
12
330
9
100
AcDbSymbolTableRecord
100
AcDbRegAppTableRecord
  2
ACAD
 70
    0
  0
APPID
  5
5A
330
9
100
AcDbSymbolTableRecord
100
AcDbRegAppTableRecord
  2
LibreCad
 70
    0
  0
ENDTAB
  0
TABLE
  2
DIMSTYLE
  5
A
330
0
100
AcDbSymbolTable
 70
    1
100
AcDbDimStyleTable
 71
    1
  0
DIMSTYLE
105
5B
330
A
100
AcDbSymbolTableRecord
100
AcDbDimStyleTableRecord
  2
Standard
 70
    0
 40
1
 41
5
 42
0.625
 43
0.38
 44
1.25
 45
0
 46
0
 47
0
 48
0
 49
1
140
2.5
141
0.09
142
0
143
25.4
144
1
145
0
146
1
147
0.625
148
0
 71
    0
 72
    0
 73
    0
 74
    1
 75
    0
 76
    0
 77
    0
 78
    8
 79
    0
170
    0
171
    2
172
    0
173
    0
174
    0
175
    0
176
    0
177
    0
178
    0
179
    2
271
    4
272
    4
273
    2
274
    2
275
    0
276
    0
277
    2
278
    0
279
    0
280
    0
281
    0
282
    0
283
    1
284
    0
285
    0
286
    0
288
    0
289
    3
340
standard
341

371
   -2
372
   -2
  0
ENDTAB
  0
TABLE
  2
BLOCK_RECORD
  5
1
330
0
100
AcDbSymbolTable
 70
    2
  0
BLOCK_RECORD
  5
1F
330
1
100
AcDbSymbolTableRecord
100
AcDbBlockTableRecord
  2
*Model_Space
 70
    0
280
    1
281
    0
  0
BLOCK_RECORD
  5
1E
330
1
100
AcDbSymbolTableRecord
100
AcDbBlockTableRecord
  2
*Paper_Space
 70
    0
280
    1
281
    0
  0
BLOCK_RECORD
  5
5C
330
1
100
AcDbSymbolTableRecord
100
AcDbBlockTableRecord
  2
*D2
 70
    0
280
    1
281
    0
  0
BLOCK_RECORD
  5
5F
330
1
100
AcDbSymbolTableRecord
100
AcDbBlockTableRecord
  2
*D8
 70
    0
280
    1
281
    0
  0
BLOCK_RECORD
  5
62
330
1
100
AcDbSymbolTableRecord
100
AcDbBlockTableRecord
  2
*D3
 70
    0
280
    1
281
    0
  0
BLOCK_RECORD
  5
65
330
1
100
AcDbSymbolTableRecord
100
AcDbBlockTableRecord
  2
*D5
 70
    0
280
    1
281
    0
  0
BLOCK_RECORD
  5
68
330
1
100
AcDbSymbolTableRecord
100
AcDbBlockTableRecord
  2
*D6
 70
    0
280
    1
281
    0
  0
BLOCK_RECORD
  5
6B
330
1
100
AcDbSymbolTableRecord
100
AcDbBlockTableRecord
  2
*D1
 70
    0
280
    1
281
    0
  0
BLOCK_RECORD
  5
6E
330
1
100
AcDbSymbolTableRecord
100
AcDbBlockTableRecord
  2
*D7
 70
    0
280
    1
281
    0
  0
BLOCK_RECORD
  5
71
330
1
100
AcDbSymbolTableRecord
100
AcDbBlockTableRecord
  2
*D4
 70
    0
280
    1
281
    0
  0
ENDTAB
  0
ENDSEC
  0
SECTION
  2
BLOCKS
  0
BLOCK
  5
20
330
1F
100
AcDbEntity
  8
0
100
AcDbBlockBegin
  2
*Model_Space
 70
    0
 10
0
 20
0
 30
0
  3
*Model_Space
  1

  0
ENDBLK
  5
21
330
1F
100
AcDbEntity
  8
0
100
AcDbBlockEnd
  0
BLOCK
  5
1C
330
1B
100
AcDbEntity
  8
0
100
AcDbBlockBegin
  2
*Paper_Space
 70
    0
 10
0
 20
0
 30
0
  3
*Paper_Space
  1

  0
ENDBLK
  5
1D
330
1F
100
AcDbEntity
  8
0
100
AcDbBlockEnd
  0
BLOCK
  5
5D
330
5C
100
AcDbEntity
  8
0
100
AcDbBlockBegin
  2
*D2
 70
    1
 10
0
 20
0
  3
*D2
  1

  0
ENDBLK
  5
5E
330
5C
100
AcDbEntity
  8
0
100
AcDbBlockEnd
  0
BLOCK
  5
60
330
5F
100
AcDbEntity
  8
0
100
AcDbBlockBegin
  2
*D8
 70
    1
 10
0
 20
0
  3
*D8
  1

  0
LINE
  5
74
100
AcDbEntity
  8
1kx1
  6
CONTINUOUS
 62
    7
370
    0
100
AcDbLine
 10
241
 20
161
 11
238
 21
161
  0
SOLID
  5
75
100
AcDbEntity
  8
1kx1
  6
CONTINUOUS
 62
    7
370
    0
100
AcDbTrace
 10
241
 20
161
 30
0
 11
236
 21
160.1674306844543
 31
0
 12
236
 22
161.8325693155457
 32
0
 13
236
 23
161.8325693155457
 33
0
  0
ENDBLK
  5
61
330
5F
100
AcDbEntity
  8
0
100
AcDbBlockEnd
  0
BLOCK
  5
63
330
62
100
AcDbEntity
  8
0
100
AcDbBlockBegin
  2
*D3
 70
    1
 10
0
 20
0
  3
*D3
  1

  0
LINE
  5
76
100
AcDbEntity
  8
abus
  6
CONTINUOUS
 62
    7
370
    0
100
AcDbLine
 10
393
 20
270
 11
383
 21
270
  0
SOLID
  5
77
100
AcDbEntity
  8
abus
  6
CONTINUOUS
 62
    7
370
    0
100
AcDbTrace
 10
393
 20
270
 30
0
 11
388
 21
269.1674306844543
 31
0
 12
388
 22
270.8325693155457
 32
0
 13
388
 23
270.8325693155457
 33
0
  0
ENDBLK
  5
64
330
62
100
AcDbEntity
  8
0
100
AcDbBlockEnd
  0
BLOCK
  5
66
330
65
100
AcDbEntity
  8
0
100
AcDbBlockBegin
  2
*D5
 70
    1
 10
0
 20
0
  3
*D5
  1

  0
LINE
  5
78
100
AcDbEntity
  8
0
  6
CONTINUOUS
 62
    7
370
    0
100
AcDbLine
 10
382
 20
266
 11
368
 21
266
  0
SOLID
  5
79
100
AcDbEntity
  8
0
  6
CONTINUOUS
 62
    7
370
    0
100
AcDbTrace
 10
382
 20
266
 30
0
 11
377
 21
265.1674306844543
 31
0
 12
377
 22
266.8325693155457
 32
0
 13
377
 23
266.8325693155457
 33
0
  0
ENDBLK
  5
67
330
65
100
AcDbEntity
  8
0
100
AcDbBlockEnd
  0
BLOCK
  5
69
330
68
100
AcDbEntity
  8
0
100
AcDbBlockBegin
  2
*D6
 70
    1
 10
0
 20
0
  3
*D6
  1

  0
LINE
  5
7A
100
AcDbEntity
  8
0
  6
CONTINUOUS
 62
    7
370
    0
100
AcDbLine
 10
363
 20
263
 11
377
 21
263
  0
SOLID
  5
7B
100
AcDbEntity
  8
0
  6
CONTINUOUS
 62
    7
370
    0
100
AcDbTrace
 10
363
 20
263
 30
0
 11
368
 21
263.8325693155457
 31
0
 12
368
 22
262.1674306844543
 32
0
 13
368
 23
262.1674306844543
 33
0
  0
ENDBLK
  5
6A
330
68
100
AcDbEntity
  8
0
100
AcDbBlockEnd
  0
BLOCK
  5
6C
330
6B
100
AcDbEntity
  8
0
100
AcDbBlockBegin
  2
*D1
 70
    1
 10
0
 20
0
  3
*D1
  1

  0
ENDBLK
  5
6D
330
6B
100
AcDbEntity
  8
0
100
AcDbBlockEnd
  0
BLOCK
  5
6F
330
6E
100
AcDbEntity
  8
0
100
AcDbBlockBegin
  2
*D7
 70
    1
 10
0
 20
0
  3
*D7
  1

  0
LINE
  5
7C
100
AcDbEntity
  8
1kx1
  6
CONTINUOUS
 62
    7
370
    0
100
AcDbLine
 10
361
 20
161
 11
358
 21
161
  0
SOLID
  5
7D
100
AcDbEntity
  8
1kx1
  6
CONTINUOUS
 62
    7
370
    0
100
AcDbTrace
 10
361
 20
161
 30
0
 11
356
 21
160.1674306844543
 31
0
 12
356
 22
161.8325693155457
 32
0
 13
356
 23
161.8325693155457
 33
0
  0
ENDBLK
  5
70
330
6E
100
AcDbEntity
  8
0
100
AcDbBlockEnd
  0
BLOCK
  5
72
330
71
100
AcDbEntity
  8
0
100
AcDbBlockBegin
  2
*D4
 70
    1
 10
0
 20
0
  3
*D4
  1

  0
LINE
  5
7E
100
AcDbEntity
  8
dbus
  6
CONTINUOUS
 62
    7
370
    0
100
AcDbLine
 10
393
 20
280
 11
383
 21
280
  0
SOLID
  5
7F
100
AcDbEntity
  8
dbus
  6
CONTINUOUS
 62
    7
370
    0
100
AcDbTrace
 10
393
 20
280
 30
0
 11
388
 21
279.1674306844543
 31
0
 12
388
 22
280.8325693155457
 32
0
 13
388
 23
280.8325693155457
 33
0
  0
ENDBLK
  5
73
330
71
100
AcDbEntity
  8
0
100
AcDbBlockEnd
  0
ENDSEC
  0
SECTION
  2
ENTITIES
  0
LWPOLYLINE
  5
80
100
AcDbEntity
  8
paepr
  6
ByLayer
 62
  256
370
   -1
100
AcDbPolyline
 90
    4
 70
    1
 43
0
 10
0
 20
0
 10
297
 20
0
 10
297
 20
420
 10
0
 20
420
  0
LWPOLYLINE
  5
81
100
AcDbEntity
  8
paepr
  6
ByLayer
 62
  256
370
   -1
100
AcDbPolyline
 90
    4
 70
    1
 43
0
 10
5
 20
5
 10
292
 20
5
 10
292
 20
415
 10
5
 20
415
  0
LEADER
  5
82
100
AcDbEntity
  8
cbus
  6
ByLayer
 62
  256
370
   -1
100
AcDbLeader
  3
Standard
 71
    1
 72
    0
 73
    3
 74
    0
 75
    0
 40
1
 41
10
 76
0
 76
0
  0
LEADER
  5
83
100
AcDbEntity
  8
cbus
  6
ByLayer
 62
  256
370
   -1
100
AcDbLeader
  3
Standard
 71
    1
 72
    0
 73
    3
 74
    0
 75
    0
 40
1
 41
10
 76
0
 76
0
  0
LWPOLYLINE
  5
84
100
AcDbEntity
  8
paper2
  6
ByLayer
 62
  256
370
   -1
100
AcDbPolyline
 90
    4
 70
    1
 43
0
 10
0
 20
0
 10
420
 20
0
 10
420
 20
297
 10
0
 20
297
  0
LWPOLYLINE
  5
85
100
AcDbEntity
  8
paper2
  6
ByLayer
 62
  256
370
   -1
100
AcDbPolyline
 90
    4
 70
    1
 43
0
 10
5
 20
5
 10
415
 20
5
 10
415
 20
292
 10
5
 20
292
  0
LWPOLYLINE
  5
86
100
AcDbEntity
  8
osnovn1
  6
ByLayer
 62
  256
370
   -1
100
AcDbPolyline
 90
    4
 70
    1
 43
0
 10
415
 20
20
 10
295
 20
20
 10
295
 20
5
 10
415
 20
5
  0
LWPOLYLINE
  5
87
100
AcDbEntity
  8
osnovn1
  6
ByLayer
 62
  256
370
   -1
100
AcDbPolyline
 90
    4
 70
    1
 43
0
 10
415
 20
60
 10
295
 20
60
 10
295
 20
45
 10
415
 20
45
  0
LWPOLYLINE
  5
88
100
AcDbEntity
  8
osnovn1
  6
ByLayer
 62
  256
370
   -1
100
AcDbPolyline
 90
    4
 70
    1
 43
0
 10
415
 20
40
 10
364
 20
40
 10
364
 20
25
 10
415
 20
25
  0
LWPOLYLINE
  5
89
100
AcDbEntity
  8
osnovn1
  6
ByLayer
 62
  256
370
   -1
100
AcDbPolyline
 90
    4
 70
    1
 43
0
 10
364
 20
40
 10
369
 20
40
 10
369
 20
25
 10
364
 20
25
  0
LWPOLYLINE
  5
8A
100
AcDbEntity
  8
osnovn1
  6
ByLayer
 62
  256
370
   -1
100
AcDbPolyline
 90
    4
 70
    1
 43
0
 10
369
 20
40
 10
374
 20
40
 10
374
 20
25
 10
369
 20
25
  0
LWPOLYLINE
  5
8B
100
AcDbEntity
  8
osnovn1
  6
ByLayer
 62
  256
370
   -1
100
AcDbPolyline
 90
    4
 70
    1
 43
0
 10
374
 20
40
 10
379
 20
40
 10
379
 20
25
 10
374
 20
25
  0
LWPOLYLINE
  5
8C
100
AcDbEntity
  8
osnovn1
  6
ByLayer
 62
  256
370
   -1
100
AcDbPolyline
 90
    4
 70
    1
 43
0
 10
295
 20
45
 10
364
 20
45
 10
364
 20
20
 10
295
 20
20
  0
LWPOLYLINE
  5
8D
100
AcDbEntity
  8
osnovn1
  6
ByLayer
 62
  256
370
   -1
100
AcDbPolyline
 90
    4
 70
    1
 43
0
 10
295
 20
60
 10
230
 20
60
 10
230
 20
5
 10
295
 20
5
  0
LWPOLYLINE
  5
8E
100
AcDbEntity
  8
osnovn1
  6
ByLayer
 62
  256
370
   -1
100
AcDbPolyline
 90
    4
 70
    1
 43
0
 10
295
 20
60
 10
230
 20
60
 10
230
 20
55
 10
295
 20
55
  0
LWPOLYLINE
  5
8F
100
AcDbEntity
  8
osnovn1
  6
ByLayer
 62
  256
370
   -1
100
AcDbPolyline
 90
    4
 70
    1
 43
0
 10
295
 20
55
 10
230
 20
55
 10
230
 20
50
 10
295
 20
50
  0
LWPOLYLINE
  5
90
100
AcDbEntity
  8
osnovn1
  6
ByLayer
 62
  256
370
   -1
100
AcDbPolyline
 90
    4
 70
    1
 43
0
 10
230
 20
50
 10
295
 20
50
 10
295
 20
45
 10
230
 20
45
  0
LWPOLYLINE
  5
91
100
AcDbEntity
  8
osnovn1
  6
ByLayer
 62
  256
370
   -1
100
AcDbPolyline
 90
    4
 70
    1
 43
0
 10
230
 20
45
 10
295
 20
45
 10
295
 20
40
 10
230
 20
40
  0
LWPOLYLINE
  5
92
100
AcDbEntity
  8
osnovn1
  6
ByLayer
 62
  256
370
   -1
100
AcDbPolyline
 90
    4
 70
    1
 43
0
 10
230
 20
35
 10
295
 20
35
 10
295
 20
30
 10
230
 20
30
  0
LWPOLYLINE
  5
93
100
AcDbEntity
  8
osnovn1
  6
ByLayer
 62
  256
370
   -1
100
AcDbPolyline
 90
    4
 70
    1
 43
0
 10
230
 20
25
 10
295
 20
25
 10
295
 20
20
 10
230
 20
20
  0
LWPOLYLINE
  5
94
100
AcDbEntity
  8
osnovn1
  6
ByLayer
 62
  256
370
   -1
100
AcDbPolyline
 90
    4
 70
    1
 43
0
 10
230
 20
15
 10
295
 20
15
 10
295
 20
10
 10
230
 20
10
  0
LWPOLYLINE
  5
95
100
AcDbEntity
  8
osnovn1
  6
ByLayer
 62
  256
370
   -1
100
AcDbPolyline
 90
    4
 70
    1
 43
0
 10
396
 20
45
 10
396
 20
45
 10
396
 20
25
 10
396
 20
25
  0
LWPOLYLINE
  5
96
100
AcDbEntity
  8
osnovn1
  6
ByLayer
 62
  256
370
   -1
100
AcDbPolyline
 90
    4
 70
    1
 43
0
 10
384
 20
25
 10
384
 20
25
 10
384
 20
20
 10
384
 20
20
  0
LWPOLYLINE
  5
97
100
AcDbEntity
  8
osnovn1
  6
ByLayer
 62
  256
370
   -1
100
AcDbPolyline
 90
    4
 70
    1
 43
0
 10
364
 20
20
 10
364
 20
20
 10
364
 20
5
 10
364
 20
5
  0
LWPOLYLINE
  5
98
100
AcDbEntity
  8
osnovn1
  6
ByLayer
 62
  256
370
   -1
100
AcDbPolyline
 90
    4
 70
    1
 43
0
 10
379
 20
45
 10
379
 20
45
 10
379
 20
40
 10
379
 20
40
  0
LWPOLYLINE
  5
99
100
AcDbEntity
  8
osnovn1
  6
ByLayer
 62
  256
370
   -1
100
AcDbPolyline
 90
    4
 70
    1
 43
0
 10
295
 20
60
 10
285
 20
60
 10
285
 20
5
 10
295
 20
5
  0
LWPOLYLINE
  5
9A
100
AcDbEntity
  8
osnovn1
  6
ByLayer
 62
  256
370
   -1
100
AcDbPolyline
 90
    4
 70
    1
 43
0
 10
285
 20
60
 10
270
 20
60
 10
270
 20
5
 10
285
 20
5
  0
LWPOLYLINE
  5
9B
100
AcDbEntity
  8
osnovn1
  6
ByLayer
 62
  256
370
   -1
100
AcDbPolyline
 90
    4
 70
    1
 43
0
 10
270
 20
60
 10
247
 20
60
 10
247
 20
5
 10
270
 20
5
  0
LWPOLYLINE
  5
9C
100
AcDbEntity
  8
osnovn1
  6
ByLayer
 62
  256
370
   -1
100
AcDbPolyline
 90
    4
 70
    1
 43
0
 10
247
 20
60
 10
237
 20
60
 10
237
 20
35
 10
247
 20
35
  0
LWPOLYLINE
  5
9D
100
AcDbEntity
  8
osnovn1
  6
ByLayer
 62
  256
370
   -1
100
AcDbPolyline
 90
    4
 70
    1
 43
0
 10
415
 20
45
 10
415
 20
45
 10
415
 20
40
 10
415
 20
40
  0
LWPOLYLINE
  5
9E
100
AcDbEntity
  8
osnovn1
  6
ByLayer
 62
  256
370
   -1
100
AcDbPolyline
 90
    4
 70
    1
 43
0
 10
415
 20
25
 10
415
 20
25
 10
415
 20
20
 10
415
 20
20
  0
MTEXT
  5
9F
100
AcDbEntity
  8
текст
  6
ByLayer
 62
  256
370
   -1
100
AcDbMText
 10
323.1111111111111
 20
55
 30
0
 40
5
 41
63.8888888888889
 71
    1
 72
    1
  1
САПР.468.xxx.012Э3\P\P
  7
unicode
210
0
220
0
230
1
 50
0
 73
    2
 44
1
  0
MTEXT
  5
A0
100
AcDbEntity
  8
текст1
  6
ByLayer
 62
  256
370
   -1
100
AcDbMText
 10
231
 20
39
 30
0
 40
2.5
 41
4.386111111111111
 71
    1
 72
    1
  1
Зм.
  7
unicode
210
0
220
0
230
1
 50
0
 73
    2
 44
1
  0
MTEXT
  5
A1
100
AcDbEntity
  8
текст1
  6
ByLayer
 62
  256
370
   -1
100
AcDbMText
 10
239
 20
39
 30
0
 40
2.5
 41
6.388888888888889
 71
    1
 72
    1
  1
Арк.\P
  7
unicode
210
0
220
0
230
1
 50
0
 73
    2
 44
1
  0
MTEXT
  5
A2
100
AcDbEntity
  8
текст1
  6
ByLayer
 62
  256
370
   -1
100
AcDbMText
 10
247.608767462774
 20
34.15732212207845
 30
0
 40
2.5
 41
21.11111111111111
 71
    1
 72
    1
  1
Мілюхін О. П.
  7
unicode
210
0
220
0
230
1
 50
0
 73
    2
 44
1
  0
MTEXT
  5
A3
100
AcDbEntity
  8
текст1
  6
ByLayer
 62
  256
370
   -1
100
AcDbMText
 10
231
 20
34
 30
0
 40
2.5
 41
11.94444444444444
 71
    1
 72
    1
  1
Розроб.
  7
unicode
210
0
220
0
230
1
 50
0
 73
    2
 44
1
  0
MTEXT
  5
A4
100
AcDbEntity
  8
текст1
  6
ByLayer
 62
  256
370
   -1
100
AcDbMText
 10
231
 20
29
 30
0
 40
2.5
 41
10
 71
    1
 72
    1
  1
Перев.\P
  7
unicode
210
0
220
0
230
1
 50
0
 73
    2
 44
1
  0
MTEXT
  5
A5
100
AcDbEntity
  8
текст1
  6
ByLayer
 62
  256
370
   -1
100
AcDbMText
 10
231
 20
24
 30
0
 40
2.5
 41
15.48611111111111
 71
    1
 72
    1
  1
Т. контр.\P
  7
unicode
210
0
220
0
230
1
 50
0
 73
    2
 44
1
  0
MTEXT
  5
A6
100
AcDbEntity
  8
текст1
  6
ByLayer
 62
  256
370
   -1
100
AcDbMText
 10
254
 20
39
 30
0
 40
2.5
 41
10
 71
    1
 72
    1
  1
докум.
  7
unicode
210
0
220
0
230
1
 50
0
 73
    2
 44
1
  0
MTEXT
  5
A7
100
AcDbEntity
  8
текст1
  6
ByLayer
 62
  256
370
   -1
100
AcDbMText
 10
250
 20
39
 30
0
 40
2.5
 41
1.964286111111111
 71
    1
 72
    1
  1
№\P
  7
lc_opengost-ar
210
0
220
0
230
1
 50
0
 73
    2
 44
1
  0
MTEXT
  5
A8
100
AcDbEntity
  8
текст1
  6
ByLayer
 62
  256
370
   -1
100
AcDbMText
 10
272
 20
39
 30
0
 40
2.5
 41
6.944444444444445
 71
    1
 72
    1
  1
Підп.\P
  7
unicode
210
0
220
0
230
1
 50
0
 73
    2
 44
1
  0
MTEXT
  5
A9
100
AcDbEntity
  8
текст1
  6
ByLayer
 62
  256
370
   -1
100
AcDbMText
 10
285
 20
39
 30
0
 40
2.5
 41
8.888888888888889
 71
    1
 72
    1
  1
Дата
  7
unicode
210
0
220
0
230
1
 50
0
 73
    2
 44
1
  0
MTEXT
  5
AA
100
AcDbEntity
  8
текст1
  6
ByLayer
 62
  256
370
   -1
100
AcDbMText
 10
231
 20
14
 30
0
 40
2.5
 41
15.20833333333333
 71
    1
 72
    1
  1
Н. контр.\P
  7
unicode
210
0
220
0
230
1
 50
0
 73
    2
 44
1
  0
MTEXT
  5
AB
100
AcDbEntity
  8
текст1
  6
ByLayer
 62
  256
370
   -1
100
AcDbMText
 10
231
 20
9
 30
0
 40
2.5
 41
14.80277777777778
 71
    1
 72
    1
  1
Затверд.
  7
unicode
210
0
220
0
230
1
 50
0
 73
    2
 44
1
  0
MTEXT
  5
AC
100
AcDbEntity
  8
текст1
  6
ByLayer
 62
  256
370
   -1
100
AcDbMText
 10
296
 20
4
 30
0
 40
2.5
 41
15.27777777777778
 71
    1
 72
    1
  1
Копіював:
  7
unicode
210
0
220
0
230
1
 50
0
 73
    2
 44
1
  0
MTEXT
  5
AD
100
AcDbEntity
  8
текст1
  6
ByLayer
 62
  256
370
   -1
100
AcDbMText
 10
365
 20
4
 30
0
 40
2.5
 41
18.95833333333334
 71
    1
 72
    1
  1
Формат А3\P
  7
unicode
210
0
220
0
230
1
 50
0
 73
    2
 44
1
  0
MTEXT
  5
AE
100
AcDbEntity
  8
текст1
  6
ByLayer
 62
  256
370
   -1
100
AcDbMText
 10
367
 20
24
 30
0
 40
2.5
 41
10
 71
    1
 72
    1
  1
Аркуш
  7
unicode
210
0
220
0
230
1
 50
0
 73
    2
 44
1
  0
MTEXT
  5
AF
100
AcDbEntity
  8
текст1
  6
ByLayer
 62
  256
370
   -1
100
AcDbMText
 10
387
 20
24
 30
0
 40
2.5
 41
16.04166666666667
 71
    1
 72
    1
  1
Аркушів 1
  7
unicode
210
0
220
0
230
1
 50
0
 73
    2
 44
1
  0
MTEXT
  5
B0
100
AcDbEntity
  8
текст1
  6
ByLayer
 62
  256
370
   -1
100
AcDbMText
 10
365
 20
44
 30
0
 40
2.5
 41
10.97222222222222
 71
    1
 72
    1
  1
Літера
  7
unicode
210
0
220
0
230
1
 50
0
 73
    2
 44
1
  0
MTEXT
  5
B1
100
AcDbEntity
  8
текст1
  6
ByLayer
 62
  256
370
   -1
100
AcDbMText
 10
383
 20
44
 30
0
 40
2.5
 41
8.055555555555555
 71
    1
 72
    1
  1
Маса
  7
unicode
210
0
220
0
230
1
 50
0
 73
    2
 44
1
  0
MTEXT
  5
B2
100
AcDbEntity
  8
текст1
  6
ByLayer
 62
  256
370
   -1
100
AcDbMText
 10
397
 20
44
 30
0
 40
2.5
 41
11.52777777777778
 71
    1
 72
    1
  1
Масшт.
  7
unicode
210
0
220
0
230
1
 50
0
 73
    2
 44
1
  0
MTEXT
  5
B3
100
AcDbEntity
  8
текст1
  6
ByLayer
 62
  256
370
   -1
100
AcDbMText
 10
405
 20
34
 30
0
 40
2.5
 41
2.777777777777778
 71
    1
 72
    1
  1
1:1
  7
unicode
210
0
220
0
230
1
 50
0
 73
    2
 44
1
  0
MTEXT
  5
B4
100
AcDbEntity
  8
текст1
  6
ByLayer
 62
  256
370
   -1
100
AcDbMText
 10
365.3194444444445
 20
15.5
 30
0
 40
2.5
 41
48.19444444444444
 71
    1
 72
    1
  1
НУ "Львівська Політехніка"\PІКНІ, САПР, ПП-14, 2023
  7
unicode
210
0
220
0
230
1
 50
0
 73
    2
 44
1
  0
MTEXT
  5
B5
100
AcDbEntity
  8
текст1
  6
ByLayer
 62
  256
370
   -1
100
AcDbMText
 10
303
 20
40
 30
0
 40
2.5
 41
53.88888888888889
 71
    1
 72
    1
  1
Блок оперативної пам’яті\PСхема електрична принципова
  7
unicode
210
0
220
0
230
1
 50
0
 73
    2
 44
1
  0
LEADER
  5
B6
100
AcDbEntity
  8
abus
  6
ByLayer
 62
  256
370
   -1
100
AcDbLeader
  3
Standard
 71
    1
 72
    0
 73
    3
 74
    0
 75
    0
 40
1
 41
10
 76
2
 76
2
 10
393
 20
270
 30
0
 10
383
 20
270
 30
0
  0
LEADER
  5
B7
100
AcDbEntity
  8
dbus
  6
ByLayer
 62
  256
370
   -1
100
AcDbLeader
  3
Standard
 71
    1
 72
    0
 73
    3
 74
    0
 75
    0
 40
1
 41
10
 76
2
 76
2
 10
393
 20
280
 30
0
 10
383
 20
280
 30
0
  0
LEADER
  5
B8
100
AcDbEntity
  8
0
  6
ByLayer
 62
  256
370
   -1
100
AcDbLeader
  3
Standard
 71
    1
 72
    0
 73
    3
 74
    0
 75
    0
 40
1
 41
10
 76
2
 76
2
 10
382
 20
266
 30
0
 10
368
 20
266
 30
0
  0
LINE
  5
B9
100
AcDbEntity
  8
0
  6
ByLayer
 62
  256
370
   -1
100
AcDbLine
 10
368
 20
266
 11
363
 21
266
  0
LEADER
  5
BA
100
AcDbEntity
  8
0
  6
ByLayer
 62
  256
370
   -1
100
AcDbLeader
  3
Standard
 71
    1
 72
    0
 73
    3
 74
    0
 75
    0
 40
1
 41
10
 76
2
 76
2
 10
363
 20
263
 30
0
 10
377
 20
263
 30
0
  0
LINE
  5
BB
100
AcDbEntity
  8
0
  6
ByLayer
 62
  256
370
   -1
100
AcDbLine
 10
377
 20
263
 11
382
 21
263
  0
MTEXT
  5
BC
100
AcDbEntity
  8
dbus
  6
ByLayer
 62
  256
370
   -1
100
AcDbMText
 10
395
 20
282
 30
0
 40
4.5
 41
7.5
 71
    1
 72
    1
  1
ШД\P
  7
unicode
210
0
220
0
230
1
 50
0
 73
    2
 44
1
  0
MTEXT
  5
BD
100
AcDbEntity
  8
abus
  6
ByLayer
 62
  256
370
   -1
100
AcDbMText
 10
395
 20
272
 30
0
 40
4.5
 41
7.5
 71
    1
 72
    1
  1
ША
  7
unicode
210
0
220
0
230
1
 50
0
 73
    2
 44
1
  0
MTEXT
  5
BE
100
AcDbEntity
  8
cbus
  6
ByLayer
 62
  256
370
   -1
100
AcDbMText
 10
395
 20
262
 30
0
 40
4.5
 41
7
 71
    1
 72
    1
  1
ШК\P
  7
unicode
210
0
220
0
230
1
 50
0
 73
    2
 44
1
  0
LINE
  5
BF
100
AcDbEntity
  8
abus
  6
ByLayer
 62
  256
370
   -1
100
AcDbLine
 10
383
 20
270
 11
20
 21
270
  0
LINE
  5
C0
100
AcDbEntity
  8
dbus
  6
ByLayer
 62
  256
370
   -1
100
AcDbLine
 10
20
 20
280
 11
388
 21
280
  0
LINE
  5
C1
100
AcDbEntity
  8
cbus
  6
ByLayer
 62
  256
370
   -1
100
AcDbLine
 10
393
 20
260
 11
20
 21
260
  0
MTEXT
  5
C2
100
AcDbEntity
  8
1kx1
  6
ByLayer
 62
  256
370
   -1
100
AcDbMText
 10
287
 20
212.5
 30
0
 40
3.5
 41
1.555555555555556
 71
    1
 72
    1
  1
0
  7
unicode
210
0
220
0
230
1
 50
0
 73
    2
 44
1
  0
MTEXT
  5
C3
100
AcDbEntity
  8
1kx1
  6
ByLayer
 62
  256
370
   -1
100
AcDbMText
 10
287
 20
206.5
 30
0
 40
3.5
 41
0.7777777777777778
 71
    1
 72
    1
  1
1
  7
unicode
210
0
220
0
230
1
 50
0
 73
    2
 44
1
  0
MTEXT
  5
C4
100
AcDbEntity
  8
1kx1
  6
ByLayer
 62
  256
370
   -1
100
AcDbMText
 10
287
 20
199.5
 30
0
 40
3.5
 41
1.555555555555556
 71
    1
 72
    1
  1
2
  7
unicode
210
0
220
0
230
1
 50
0
 73
    2
 44
1
  0
MTEXT
  5
C5
100
AcDbEntity
  8
1kx1
  6
ByLayer
 62
  256
370
   -1
100
AcDbMText
 10
287
 20
192.5
 30
0
 40
3.5
 41
1.555555555555556
 71
    1
 72
    1
  1
3
  7
unicode
210
0
220
0
230
1
 50
0
 73
    2
 44
1
  0
MTEXT
  5
C6
100
AcDbEntity
  8
1kx1
  6
ByLayer
 62
  256
370
   -1
100
AcDbMText
 10
287
 20
185.5
 30
0
 40
3.5
 41
1.944444444444444
 71
    1
 72
    1
  1
4
  7
unicode
210
0
220
0
230
1
 50
0
 73
    2
 44
1
  0
MTEXT
  5
C7
100
AcDbEntity
  8
1kx1
  6
ByLayer
 62
  256
370
   -1
100
AcDbMText
 10
287
 20
178.5
 30
0
 40
3.5
 41
1.555555555555556
 71
    1
 72
    1
  1
5
  7
unicode
210
0
220
0
230
1
 50
0
 73
    2
 44
1
  0
MTEXT
  5
C8
100
AcDbEntity
  8
1kx1
  6
ByLayer
 62
  256
370
   -1
100
AcDbMText
 10
287
 20
171.5
 30
0
 40
3.5
 41
1.555555555555556
 71
    1
 72
    1
  1
6
  7
unicode
210
0
220
0
230
1
 50
0
 73
    2
 44
1
  0
MTEXT
  5
C9
100
AcDbEntity
  8
1kx1
  6
ByLayer
 62
  256
370
   -1
100
AcDbMText
 10
287
 20
163.5
 30
0
 40
3.5
 41
1.555555555555556
 71
    1
 72
    1
  1
7
  7
unicode
210
0
220
0
230
1
 50
0
 73
    2
 44
1
  0
MTEXT
  5
CA
100
AcDbEntity
  8
1kx1
  6
ByLayer
 62
  256
370
   -1
100
AcDbMText
 10
287
 20
156.5
 30
0
 40
3.5
 41
1.555555555555556
 71
    1
 72
    1
  1
8
  7
unicode
210
0
220
0
230
1
 50
0
 73
    2
 44
1
  0
MTEXT
  5
CB
100
AcDbEntity
  8
1kx1
  6
ByLayer
 62
  256
370
   -1
100
AcDbMText
 10
287
 20
149.5
 30
0
 40
3.5
 41
1.555555555555556
 71
    1
 72
    1
  1
9
  7
unicode
210
0
220
0
230
1
 50
0
 73
    2
 44
1
  0
MTEXT
  5
CC
100
AcDbEntity
  8
1kx1
  6
ByLayer
 62
  256
370
   -1
100
AcDbMText
 10
287
 20
218
 30
0
 40
3.5
 41
2.333333333333333
 71
    1
 72
    1
  1
A
  7
unicode
210
0
220
0
230
1
 50
0
 73
    2
 44
1
  0
LINE
  5
CD
100
AcDbEntity
  8
1kx1
  6
ByLayer
 62
  256
370
   -1
100
AcDbLine
 10
296
 20
141
 11
281
 21
141
  0
LWPOLYLINE
  5
CE
100
AcDbEntity
  8
1kx1
  6
ByLayer
 62
  256
370
   -1
100
AcDbPolyline
 90
    4
 70
    1
 43
0
 10
296
 20
221
 10
316
 20
221
 10
316
 20
111
 10
296
 20
111
  0
LWPOLYLINE
  5
CF
100
AcDbEntity
  8
1kx1
  6
ByLayer
 62
  256
370
   -1
100
AcDbPolyline
 90
    4
 70
    1
 43
0
 10
316
 20
221
 10
331
 20
221
 10
331
 20
111
 10
316
 20
111
  0
MTEXT
  5
D0
100
AcDbEntity
  8
1kx1
  6
ByLayer
 62
  256
370
   -1
100
AcDbMText
 10
277
 20
216
 30
0
 40
3.5
 41
1.555555555555556
 71
    1
 72
    1
  1
5
  7
unicode
210
0
220
0
230
1
 50
0
 73
    2
 44
1
  0
MTEXT
  5
D1
100
AcDbEntity
  8
1kx1
  6
ByLayer
 62
  256
370
   -1
100
AcDbMText
 10
277
 20
209
 30
0
 40
3.5
 41
1.944444444444444
 71
    1
 72
    1
  1
4
  7
unicode
210
0
220
0
230
1
 50
0
 73
    2
 44
1
  0
MTEXT
  5
D2
100
AcDbEntity
  8
1kx1
  6
ByLayer
 62
  256
370
   -1
100
AcDbMText
 10
277
 20
202
 30
0
 40
3.5
 41
1.555555555555556
 71
    1
 72
    1
  1
3
  7
unicode
210
0
220
0
230
1
 50
0
 73
    2
 44
1
  0
MTEXT
  5
D3
100
AcDbEntity
  8
1kx1
  6
ByLayer
 62
  256
370
   -1
100
AcDbMText
 10
277
 20
195
 30
0
 40
3.5
 41
1.555555555555556
 71
    1
 72
    1
  1
2
  7
unicode
210
0
220
0
230
1
 50
0
 73
    2
 44
1
  0
MTEXT
  5
D4
100
AcDbEntity
  8
1kx1
  6
ByLayer
 62
  256
370
   -1
100
AcDbMText
 10
277
 20
188
 30
0
 40
3.5
 41
1.555555555555556
 71
    1
 72
    1
  1
6
  7
unicode
210
0
220
0
230
1
 50
0
 73
    2
 44
1
  0
MTEXT
  5
D5
100
AcDbEntity
  8
1kx1
  6
ByLayer
 62
  256
370
   -1
100
AcDbMText
 10
277
 20
181
 30
0
 40
3.5
 41
1.555555555555556
 71
    1
 72
    1
  1
7
  7
unicode
210
0
220
0
230
1
 50
0
 73
    2
 44
1
  0
MTEXT
  5
D6
100
AcDbEntity
  8
1kx1
  6
ByLayer
 62
  256
370
   -1
100
AcDbMText
 10
277
 20
174
 30
0
 40
3.5
 41
1.555555555555556
 71
    1
 72
    1
  1
9
  7
unicode
210
0
220
0
230
1
 50
0
 73
    2
 44
1
  0
MTEXT
  5
D7
100
AcDbEntity
  8
1kx1
  6
ByLayer
 62
  256
370
   -1
100
AcDbMText
 10
276.0555555555555
 20
153.5
 30
0
 40
3.5
 41
3.5
 71
    1
 72
    1
  1
12
  7
unicode
210
0
220
0
230
1
 50
0
 73
    2
 44
1
  0
MTEXT
  5
D8
100
AcDbEntity
  8
1kx1
  6
ByLayer
 62
  256
370
   -1
100
AcDbMText
 10
276
 20
159.5
 30
0
 40
3.5
 41
2.722222222222222
 71
    1
 72
    1
  1
11
  7
unicode
210
0
220
0
230
1
 50
0
 73
    2
 44
1
  0
MTEXT
  5
D9
100
AcDbEntity
  8
1kx1
  6
ByLayer
 62
  256
370
   -1
100
AcDbMText
 10
276.0555555555555
 20
166.5
 30
0
 40
3.5
 41
3.5
 71
    1
 72
    1
  1
10
  7
unicode
210
0
220
0
230
1
 50
0
 73
    2
 44
1
  0
LINE
  5
DA
100
AcDbEntity
  8
1kx1
  6
ByLayer
 62
  256
370
   -1
100
AcDbLine
 10
281
 20
211
 11
274
 21
211
  0
LINE
  5
DB
100
AcDbEntity
  8
1kx1
  6
ByLayer
 62
  256
370
   -1
100
AcDbLine
 10
274
 20
211
 11
271
 21
213
  0
LINE
  5
DC
100
AcDbEntity
  8
1kx1
  6
ByLayer
 62
  256
370
   -1
100
AcDbLine
 10
281
 20
204
 11
274
 21
204
  0
LINE
  5
DD
100
AcDbEntity
  8
1kx1
  6
ByLayer
 62
  256
370
   -1
100
AcDbLine
 10
274
 20
204
 11
271
 21
206
  0
LINE
  5
DE
100
AcDbEntity
  8
1kx1
  6
ByLayer
 62
  256
370
   -1
100
AcDbLine
 10
281
 20
197
 11
274
 21
197
  0
LINE
  5
DF
100
AcDbEntity
  8
1kx1
  6
ByLayer
 62
  256
370
   -1
100
AcDbLine
 10
274
 20
197
 11
271
 21
199
  0
LINE
  5
E0
100
AcDbEntity
  8
1kx1
  6
ByLayer
 62
  256
370
   -1
100
AcDbLine
 10
281
 20
190
 11
274
 21
190
  0
LINE
  5
E1
100
AcDbEntity
  8
1kx1
  6
ByLayer
 62
  256
370
   -1
100
AcDbLine
 10
274
 20
190
 11
271
 21
192
  0
LINE
  5
E2
100
AcDbEntity
  8
1kx1
  6
ByLayer
 62
  256
370
   -1
100
AcDbLine
 10
281
 20
183
 11
274
 21
183
  0
LINE
  5
E3
100
AcDbEntity
  8
1kx1
  6
ByLayer
 62
  256
370
   -1
100
AcDbLine
 10
274
 20
183
 11
271
 21
185
  0
LINE
  5
E4
100
AcDbEntity
  8
1kx1
  6
ByLayer
 62
  256
370
   -1
100
AcDbLine
 10
281
 20
176
 11
274
 21
176
  0
LINE
  5
E5
100
AcDbEntity
  8
1kx1
  6
ByLayer
 62
  256
370
   -1
100
AcDbLine
 10
274
 20
176
 11
271
 21
178
  0
LINE
  5
E6
100
AcDbEntity
  8
1kx1
  6
ByLayer
 62
  256
370
   -1
100
AcDbLine
 10
281
 20
169
 11
274
 21
169
  0
LINE
  5
E7
100
AcDbEntity
  8
1kx1
  6
ByLayer
 62
  256
370
   -1
100
AcDbLine
 10
274
 20
169
 11
271
 21
171
  0
LINE
  5
E8
100
AcDbEntity
  8
1kx1
  6
ByLayer
 62
  256
370
   -1
100
AcDbLine
 10
281
 20
162
 11
274
 21
162
  0
LINE
  5
E9
100
AcDbEntity
  8
1kx1
  6
ByLayer
 62
  256
370
   -1
100
AcDbLine
 10
274
 20
162
 11
271
 21
164
  0
LINE
  5
EA
100
AcDbEntity
  8
1kx1
  6
ByLayer
 62
  256
370
   -1
100
AcDbLine
 10
281
 20
155
 11
274
 21
155
  0
LINE
  5
EB
100
AcDbEntity
  8
1kx1
  6
ByLayer
 62
  256
370
   -1
100
AcDbLine
 10
274
 20
155
 11
271
 21
157
  0
LINE
  5
EC
100
AcDbEntity
  8
1kx1
  6
ByLayer
 62
  256
370
   -1
100
AcDbLine
 10
281
 20
148
 11
274
 21
148
  0
LINE
  5
ED
100
AcDbEntity
  8
1kx1
  6
ByLayer
 62
  256
370
   -1
100
AcDbLine
 10
274
 20
148
 11
271
 21
150
  0
MTEXT
  5
EE
100
AcDbEntity
  8
1kx1
  6
ByLayer
 62
  256
370
   -1
100
AcDbMText
 10
301
 20
201
 30
0
 40
3.5
 41
8.944444444444445
 71
    1
 72
    1
  1
RAM\P
  7
unicode
210
0
220
0
230
1
 50
0
 73
    2
 44
1
  0
MTEXT
  5
EF
100
AcDbEntity
  8
1kx1
  6
ByLayer
 62
  256
370
   -1
100
AcDbMText
 10
301
 20
191
 30
0
 40
3.5
 41
8.555555555555555
 71
    1
 72
    1
  1
1Kx1\P
  7
unicode
210
0
220
0
230
1
 50
0
 73
    2
 44
1
  0
MTEXT
  5
F0
100
AcDbEntity
  8
1kx1
  6
ByLayer
 62
  256
370
   -1
100
AcDbMText
 10
286.8888888888889
 20
120.5
 30
0
 40
3.5
 41
3.111111111111111
 71
    1
 72
    1
  1
DI\P
  7
unicode
210
0
220
0
230
1
 50
0
 73
    2
 44
1
  0
LINE
  5
F1
100
AcDbEntity
  8
1kx1
  6
ByLayer
 62
  256
370
   -1
100
AcDbLine
 10
331
 20
211
 11
341
 21
211
  0
LINE
  5
F2
100
AcDbEntity
  8
1kx1
  6
ByLayer
 62
  256
370
   -1
100
AcDbLine
 10
341
 20
211
 11
351
 21
211
  0
MTEXT
  5
F3
100
AcDbEntity
  8
1kx1
  6
ByLayer
 62
  256
370
   -1
100
AcDbMText
 10
334
 20
216
 30
0
 40
3.5
 41
0.7777777777777778
 71
    1
 72
    1
  1
1
  7
unicode
210
0
220
0
230
1
 50
0
 73
    2
 44
1
  0
LINE
  5
F4
100
AcDbEntity
  8
1kx1
  6
ByLayer
 62
  256
370
   -1
100
AcDbLine
 10
331
 20
171
 11
316
 21
171
  0
LINE
  5
F5
100
AcDbEntity
  8
1kx1
  6
ByLayer
 62
  256
370
   -1
100
AcDbLine
 10
331
 20
154
 11
345
 21
154
  0
LINE
  5
F6
100
AcDbEntity
  8
1kx1
  6
ByLayer
 62
  256
370
   -1
100
AcDbLine
 10
346
 20
154
 11
345
 21
154
  0
LINE
  5
F7
100
AcDbEntity
  8
1kx1
  6
ByLayer
 62
  256
370
   -1
100
AcDbLine
 10
346
 20
154
 11
346
 21
146
  0
LINE
  5
F8
100
AcDbEntity
  8
1kx1
  6
ByLayer
 62
  256
370
   -1
100
AcDbLine
 10
346
 20
146
 11
341
 21
146
  0
LINE
  5
F9
100
AcDbEntity
  8
1kx1
  6
ByLayer
 62
  256
370
   -1
100
AcDbLine
 10
341
 20
146
 11
346
 21
146
  0
LINE
  5
FA
100
AcDbEntity
  8
1kx1
  6
ByLayer
 62
  256
370
   -1
100
AcDbLine
 10
346
 20
146
 11
350
 21
146
  0
LINE
  5
FB
100
AcDbEntity
  8
1kx1
  6
ByLayer
 62
  256
370
   -1
100
AcDbLine
 10
350
 20
146
 11
351
 21
146
  0
MTEXT
  5
FC
100
AcDbEntity
  8
1kx1
  6
ByLayer
 62
  256
370
   -1
100
AcDbMText
 10
321.5
 20
163.5
 30
0
 40
3.5
 41
6.999999999999999
 71
    1
 72
    1
  1
Vcc
  7
unicode
210
0
220
0
230
1
 50
0
 73
    2
 44
1
  0
MTEXT
  5
FD
100
AcDbEntity
  8
1kx1
  6
ByLayer
 62
  256
370
   -1
100
AcDbMText
 10
320.7777777777778
 20
155.5
 30
0
 40
3.5
 41
8.166666666666666
 71
    1
 72
    1
  1
GND
  7
unicode
210
0
220
0
230
1
 50
0
 73
    2
 44
1
  0
LINE
  5
FE
100
AcDbEntity
  8
1kx1
  6
ByLayer
 62
  256
370
   -1
100
AcDbLine
 10
351
 20
211
 11
359.6602540378444
 21
216
  0
LINE
  5
FF
100
AcDbEntity
  8
1kx1
  6
ByLayer
 62
  256
370
   -1
100
AcDbLine
 10
296
 20
221
 11
281
 21
221
  0
LINE
  5
100
100
AcDbEntity
  8
1kx1
  6
ByLayer
 62
  256
370
   -1
100
AcDbLine
 10
281
 20
221
 11
281
 21
141
  0
CIRCLE
  5
101
100
AcDbEntity
  8
1kx1
  6
ByLayer
 62
  256
370
   -1
100
AcDbCircle
 10
281
 20
133
 40
1
  0
LINE
  5
102
100
AcDbEntity
  8
1kx1
  6
ByLayer
 62
  256
370
   -1
100
AcDbLine
 10
281
 20
141
 11
281
 21
134
  0
CIRCLE
  5
103
100
AcDbEntity
  8
1kx1
  6
ByLayer
 62
  256
370
   -1
100
AcDbCircle
 10
281
 20
126
 40
1
  0
MTEXT
  5
104
100
AcDbEntity
  8
1kx1
  6
ByLayer
 62
  256
370
   -1
100
AcDbMText
 10
275.0555555555556
 20
138.5
 30
0
 40
3.5
 41
3.5
 71
    1
 72
    1
  1
13
  7
unicode
210
0
220
0
230
1
 50
0
 73
    2
 44
1
  0
MTEXT
  5
105
100
AcDbEntity
  8
1kx1
  6
ByLayer
 62
  256
370
   -1
100
AcDbMText
 10
275.0555555555556
 20
131.5
 30
0
 40
3.5
 41
3.888888888888889
 71
    1
 72
    1
  1
14
  7
unicode
210
0
220
0
230
1
 50
0
 73
    2
 44
1
  0
MTEXT
  5
106
100
AcDbEntity
  8
1kx1
  6
ByLayer
 62
  256
370
   -1
100
AcDbMText
 10
275.0555555555556
 20
124.5
 30
0
 40
3.5
 41
3.5
 71
    1
 72
    1
  1
15\P
  7
unicode
210
0
220
0
230
1
 50
0
 73
    2
 44
1
  0
LINE
  5
107
100
AcDbEntity
  8
1kx1
  6
ByLayer
 62
  256
370
   -1
100
AcDbLine
 10
280
 20
133
 11
270
 21
133
  0
LINE
  5
108
100
AcDbEntity
  8
1kx1
  6
ByLayer
 62
  256
370
   -1
100
AcDbLine
 10
281
 20
132
 11
281
 21
127
  0
LINE
  5
109
100
AcDbEntity
  8
1kx1
  6
ByLayer
 62
  256
370
   -1
100
AcDbLine
 10
296
 20
111
 11
281
 21
111
  0
MTEXT
  5
10A
100
AcDbEntity
  8
1kx1
  6
ByLayer
 62
  256
370
   -1
100
AcDbMText
 10
321
 20
211
 30
0
 40
3.5
 41
5.055555555555555
 71
    1
 72
    1
  1
DO
  7
unicode
210
0
220
0
230
1
 50
0
 73
    2
 44
1
  0
LINE
  5
10B
100
AcDbEntity
  8
abus
  6
ByLayer
 62
  256
370
   -1
100
AcDbLine
 10
267
 20
230
 11
275.6602540378444
 21
235
  0
MTEXT
  5
10C
100
AcDbEntity
  8
abus
  6
ByLayer
 62
  256
370
   -1
100
AcDbMText
 10
264
 20
237
 30
0
 40
4.5
 41
4.5
 71
    1
 72
    1
  1
10\P
  7
unicode
210
0
220
0
230
1
 50
0
 73
    2
 44
1
  0
LINE
  5
10D
100
AcDbEntity
  8
abus
  6
ByLayer
 62
  256
370
   -1
100
AcDbLine
 10
271
 20
270
 11
271
 21
147
  0
LINE
  5
10E
100
AcDbEntity
  8
dbus
  6
ByLayer
 62
  256
370
   -1
100
AcDbLine
 10
360
 20
213
 11
360
 21
280
  0
LINE
  5
10F
100
AcDbEntity
  8
smol wires
  6
ByLayer
 62
  256
370
   -1
100
AcDbLine
 10
262
 20
126
 11
262
 21
280
  0
LINE
  5
110
100
AcDbEntity
  8
smol wires
  6
ByLayer
 62
  256
370
   -1
100
AcDbLine
 10
270
 20
133
 11
257
 21
133
  0
LINE
  5
111
100
AcDbEntity
  8
smol wires
  6
ByLayer
 62
  256
370
   -1
100
AcDbLine
 10
257
 20
133
 11
257
 21
260
  0
LINE
  5
112
100
AcDbEntity
  8
smol wires
  6
ByLayer
 62
  256
370
   -1
100
AcDbLine
 10
262
 20
126
 11
262
 21
119
  0
LWPOLYLINE
  5
113
100
AcDbEntity
  8
1kx1
  6
ByLayer
 62
  256
370
   -1
100
AcDbPolyline
 90
    4
 70
    1
 43
0
 10
336
 20
158
 10
352
 20
158
 10
352
 20
164
 10
336
 20
164
  0
LINE
  5
114
100
AcDbEntity
  8
1kx1
  6
ByLayer
 62
  256
370
   -1
100
AcDbLine
 10
331
 20
161
 11
336
 21
161
  0
LEADER
  5
115
100
AcDbEntity
  8
1kx1
  6
ByLayer
 62
  256
370
   -1
100
AcDbLeader
  3
Standard
 71
    1
 72
    0
 73
    3
 74
    0
 75
    0
 40
1
 41
10
 76
2
 76
2
 10
361
 20
161
 30
0
 10
358
 20
161
 30
0
  0
LINE
  5
116
100
AcDbEntity
  8
1kx1
  6
ByLayer
 62
  256
370
   -1
100
AcDbLine
 10
358
 20
161
 11
352
 21
161
  0
MTEXT
  5
117
100
AcDbEntity
  8
1kx1
  6
ByLayer
 62
  256
370
   -1
100
AcDbMText
 10
336.2777777777778
 20
169.5
 30
0
 40
3.5
 41
11.56944444444444
 71
    1
 72
    1
  1
R1 1K
  7
unicode
210
0
220
0
230
1
 50
0
 73
    2
 44
1
  0
MTEXT
  5
118
100
AcDbEntity
  8
1kx1
  6
ByLayer
 62
  256
370
   -1
100
AcDbMText
 10
352.2777777777778
 20
169.5
 30
0
 40
3.5
 41
7.388888888888889
 71
    1
 72
    1
  1
+5В
  7
unicode
210
0
220
0
230
1
 50
0
 73
    2
 44
1
  0
MTEXT
  5
119
100
AcDbEntity
  8
1kx1
  6
ByLayer
 62
  256
370
   -1
100
AcDbMText
 10
167
 20
212.5
 30
0
 40
3.5
 41
1.555555555555556
 71
    1
 72
    1
  1
0
  7
unicode
210
0
220
0
230
1
 50
0
 73
    2
 44
1
  0
MTEXT
  5
11A
100
AcDbEntity
  8
1kx1
  6
ByLayer
 62
  256
370
   -1
100
AcDbMText
 10
167
 20
206.5
 30
0
 40
3.5
 41
0.7777777777777778
 71
    1
 72
    1
  1
1
  7
unicode
210
0
220
0
230
1
 50
0
 73
    2
 44
1
  0
MTEXT
  5
11B
100
AcDbEntity
  8
1kx1
  6
ByLayer
 62
  256
370
   -1
100
AcDbMText
 10
167
 20
199.5
 30
0
 40
3.5
 41
1.555555555555556
 71
    1
 72
    1
  1
2
  7
unicode
210
0
220
0
230
1
 50
0
 73
    2
 44
1
  0
MTEXT
  5
11C
100
AcDbEntity
  8
1kx1
  6
ByLayer
 62
  256
370
   -1
100
AcDbMText
 10
167
 20
192.5
 30
0
 40
3.5
 41
1.555555555555556
 71
    1
 72
    1
  1
3
  7
unicode
210
0
220
0
230
1
 50
0
 73
    2
 44
1
  0
MTEXT
  5
11D
100
AcDbEntity
  8
1kx1
  6
ByLayer
 62
  256
370
   -1
100
AcDbMText
 10
167
 20
185.5
 30
0
 40
3.5
 41
1.944444444444444
 71
    1
 72
    1
  1
4
  7
unicode
210
0
220
0
230
1
 50
0
 73
    2
 44
1
  0
MTEXT
  5
11E
100
AcDbEntity
  8
1kx1
  6
ByLayer
 62
  256
370
   -1
100
AcDbMText
 10
167
 20
178.5
 30
0
 40
3.5
 41
1.555555555555556
 71
    1
 72
    1
  1
5
  7
unicode
210
0
220
0
230
1
 50
0
 73
    2
 44
1
  0
MTEXT
  5
11F
100
AcDbEntity
  8
1kx1
  6
ByLayer
 62
  256
370
   -1
100
AcDbMText
 10
167
 20
171.5
 30
0
 40
3.5
 41
1.555555555555556
 71
    1
 72
    1
  1
6
  7
unicode
210
0
220
0
230
1
 50
0
 73
    2
 44
1
  0
MTEXT
  5
120
100
AcDbEntity
  8
1kx1
  6
ByLayer
 62
  256
370
   -1
100
AcDbMText
 10
167
 20
163.5
 30
0
 40
3.5
 41
1.555555555555556
 71
    1
 72
    1
  1
7
  7
unicode
210
0
220
0
230
1
 50
0
 73
    2
 44
1
  0
MTEXT
  5
121
100
AcDbEntity
  8
1kx1
  6
ByLayer
 62
  256
370
   -1
100
AcDbMText
 10
167
 20
156.5
 30
0
 40
3.5
 41
1.555555555555556
 71
    1
 72
    1
  1
8
  7
unicode
210
0
220
0
230
1
 50
0
 73
    2
 44
1
  0
MTEXT
  5
122
100
AcDbEntity
  8
1kx1
  6
ByLayer
 62
  256
370
   -1
100
AcDbMText
 10
167
 20
149.5
 30
0
 40
3.5
 41
1.555555555555556
 71
    1
 72
    1
  1
9
  7
unicode
210
0
220
0
230
1
 50
0
 73
    2
 44
1
  0
MTEXT
  5
123
100
AcDbEntity
  8
1kx1
  6
ByLayer
 62
  256
370
   -1
100
AcDbMText
 10
167
 20
218
 30
0
 40
3.5
 41
2.333333333333333
 71
    1
 72
    1
  1
A
  7
unicode
210
0
220
0
230
1
 50
0
 73
    2
 44
1
  0
LINE
  5
124
100
AcDbEntity
  8
1kx1
  6
ByLayer
 62
  256
370
   -1
100
AcDbLine
 10
176
 20
141
 11
161
 21
141
  0
LWPOLYLINE
  5
125
100
AcDbEntity
  8
1kx1
  6
ByLayer
 62
  256
370
   -1
100
AcDbPolyline
 90
    4
 70
    1
 43
0
 10
176
 20
221
 10
196
 20
221
 10
196
 20
111
 10
176
 20
111
  0
LWPOLYLINE
  5
126
100
AcDbEntity
  8
1kx1
  6
ByLayer
 62
  256
370
   -1
100
AcDbPolyline
 90
    4
 70
    1
 43
0
 10
196
 20
221
 10
211
 20
221
 10
211
 20
111
 10
196
 20
111
  0
MTEXT
  5
127
100
AcDbEntity
  8
1kx1
  6
ByLayer
 62
  256
370
   -1
100
AcDbMText
 10
157
 20
216
 30
0
 40
3.5
 41
1.555555555555556
 71
    1
 72
    1
  1
5
  7
unicode
210
0
220
0
230
1
 50
0
 73
    2
 44
1
  0
MTEXT
  5
128
100
AcDbEntity
  8
1kx1
  6
ByLayer
 62
  256
370
   -1
100
AcDbMText
 10
157
 20
209
 30
0
 40
3.5
 41
1.944444444444444
 71
    1
 72
    1
  1
4
  7
unicode
210
0
220
0
230
1
 50
0
 73
    2
 44
1
  0
MTEXT
  5
129
100
AcDbEntity
  8
1kx1
  6
ByLayer
 62
  256
370
   -1
100
AcDbMText
 10
157
 20
202
 30
0
 40
3.5
 41
1.555555555555556
 71
    1
 72
    1
  1
3
  7
unicode
210
0
220
0
230
1
 50
0
 73
    2
 44
1
  0
MTEXT
  5
12A
100
AcDbEntity
  8
1kx1
  6
ByLayer
 62
  256
370
   -1
100
AcDbMText
 10
157
 20
195
 30
0
 40
3.5
 41
1.555555555555556
 71
    1
 72
    1
  1
2
  7
unicode
210
0
220
0
230
1
 50
0
 73
    2
 44
1
  0
MTEXT
  5
12B
100
AcDbEntity
  8
1kx1
  6
ByLayer
 62
  256
370
   -1
100
AcDbMText
 10
157
 20
188
 30
0
 40
3.5
 41
1.555555555555556
 71
    1
 72
    1
  1
6
  7
unicode
210
0
220
0
230
1
 50
0
 73
    2
 44
1
  0
MTEXT
  5
12C
100
AcDbEntity
  8
1kx1
  6
ByLayer
 62
  256
370
   -1
100
AcDbMText
 10
157
 20
181
 30
0
 40
3.5
 41
1.555555555555556
 71
    1
 72
    1
  1
7
  7
unicode
210
0
220
0
230
1
 50
0
 73
    2
 44
1
  0
MTEXT
  5
12D
100
AcDbEntity
  8
1kx1
  6
ByLayer
 62
  256
370
   -1
100
AcDbMText
 10
157
 20
174
 30
0
 40
3.5
 41
1.555555555555556
 71
    1
 72
    1
  1
9
  7
unicode
210
0
220
0
230
1
 50
0
 73
    2
 44
1
  0
MTEXT
  5
12E
100
AcDbEntity
  8
1kx1
  6
ByLayer
 62
  256
370
   -1
100
AcDbMText
 10
156.0555555555555
 20
153.5
 30
0
 40
3.5
 41
3.5
 71
    1
 72
    1
  1
12
  7
unicode
210
0
220
0
230
1
 50
0
 73
    2
 44
1
  0
MTEXT
  5
12F
100
AcDbEntity
  8
1kx1
  6
ByLayer
 62
  256
370
   -1
100
AcDbMText
 10
156
 20
159.5
 30
0
 40
3.5
 41
2.722222222222222
 71
    1
 72
    1
  1
11
  7
unicode
210
0
220
0
230
1
 50
0
 73
    2
 44
1
  0
MTEXT
  5
130
100
AcDbEntity
  8
1kx1
  6
ByLayer
 62
  256
370
   -1
100
AcDbMText
 10
156.0555555555555
 20
166.5
 30
0
 40
3.5
 41
3.5
 71
    1
 72
    1
  1
10
  7
unicode
210
0
220
0
230
1
 50
0
 73
    2
 44
1
  0
LINE
  5
131
100
AcDbEntity
  8
1kx1
  6
ByLayer
 62
  256
370
   -1
100
AcDbLine
 10
161
 20
211
 11
154
 21
211
  0
LINE
  5
132
100
AcDbEntity
  8
1kx1
  6
ByLayer
 62
  256
370
   -1
100
AcDbLine
 10
154
 20
211
 11
151
 21
213
  0
LINE
  5
133
100
AcDbEntity
  8
1kx1
  6
ByLayer
 62
  256
370
   -1
100
AcDbLine
 10
161
 20
204
 11
154
 21
204
  0
LINE
  5
134
100
AcDbEntity
  8
1kx1
  6
ByLayer
 62
  256
370
   -1
100
AcDbLine
 10
154
 20
204
 11
151
 21
206
  0
LINE
  5
135
100
AcDbEntity
  8
1kx1
  6
ByLayer
 62
  256
370
   -1
100
AcDbLine
 10
161
 20
197
 11
154
 21
197
  0
LINE
  5
136
100
AcDbEntity
  8
1kx1
  6
ByLayer
 62
  256
370
   -1
100
AcDbLine
 10
154
 20
197
 11
151
 21
199
  0
LINE
  5
137
100
AcDbEntity
  8
1kx1
  6
ByLayer
 62
  256
370
   -1
100
AcDbLine
 10
161
 20
190
 11
154
 21
190
  0
LINE
  5
138
100
AcDbEntity
  8
1kx1
  6
ByLayer
 62
  256
370
   -1
100
AcDbLine
 10
154
 20
190
 11
151
 21
192
  0
LINE
  5
139
100
AcDbEntity
  8
1kx1
  6
ByLayer
 62
  256
370
   -1
100
AcDbLine
 10
161
 20
183
 11
154
 21
183
  0
LINE
  5
13A
100
AcDbEntity
  8
1kx1
  6
ByLayer
 62
  256
370
   -1
100
AcDbLine
 10
154
 20
183
 11
151
 21
185
  0
LINE
  5
13B
100
AcDbEntity
  8
1kx1
  6
ByLayer
 62
  256
370
   -1
100
AcDbLine
 10
161
 20
176
 11
154
 21
176
  0
LINE
  5
13C
100
AcDbEntity
  8
1kx1
  6
ByLayer
 62
  256
370
   -1
100
AcDbLine
 10
154
 20
176
 11
151
 21
178
  0
LINE
  5
13D
100
AcDbEntity
  8
1kx1
  6
ByLayer
 62
  256
370
   -1
100
AcDbLine
 10
161
 20
169
 11
154
 21
169
  0
LINE
  5
13E
100
AcDbEntity
  8
1kx1
  6
ByLayer
 62
  256
370
   -1
100
AcDbLine
 10
154
 20
169
 11
151
 21
171
  0
LINE
  5
13F
100
AcDbEntity
  8
1kx1
  6
ByLayer
 62
  256
370
   -1
100
AcDbLine
 10
161
 20
162
 11
154
 21
162
  0
LINE
  5
140
100
AcDbEntity
  8
1kx1
  6
ByLayer
 62
  256
370
   -1
100
AcDbLine
 10
154
 20
162
 11
151
 21
164
  0
LINE
  5
141
100
AcDbEntity
  8
1kx1
  6
ByLayer
 62
  256
370
   -1
100
AcDbLine
 10
161
 20
155
 11
154
 21
155
  0
LINE
  5
142
100
AcDbEntity
  8
1kx1
  6
ByLayer
 62
  256
370
   -1
100
AcDbLine
 10
154
 20
155
 11
151
 21
157
  0
LINE
  5
143
100
AcDbEntity
  8
1kx1
  6
ByLayer
 62
  256
370
   -1
100
AcDbLine
 10
161
 20
148
 11
154
 21
148
  0
LINE
  5
144
100
AcDbEntity
  8
1kx1
  6
ByLayer
 62
  256
370
   -1
100
AcDbLine
 10
154
 20
148
 11
151
 21
150
  0
MTEXT
  5
145
100
AcDbEntity
  8
1kx1
  6
ByLayer
 62
  256
370
   -1
100
AcDbMText
 10
181
 20
201
 30
0
 40
3.5
 41
8.944444444444445
 71
    1
 72
    1
  1
RAM\P
  7
unicode
210
0
220
0
230
1
 50
0
 73
    2
 44
1
  0
MTEXT
  5
146
100
AcDbEntity
  8
1kx1
  6
ByLayer
 62
  256
370
   -1
100
AcDbMText
 10
181
 20
191
 30
0
 40
3.5
 41
8.555555555555555
 71
    1
 72
    1
  1
1Kx1\P
  7
unicode
210
0
220
0
230
1
 50
0
 73
    2
 44
1
  0
MTEXT
  5
147
100
AcDbEntity
  8
1kx1
  6
ByLayer
 62
  256
370
   -1
100
AcDbMText
 10
166.8888888888889
 20
120.5
 30
0
 40
3.5
 41
3.111111111111111
 71
    1
 72
    1
  1
DI\P
  7
unicode
210
0
220
0
230
1
 50
0
 73
    2
 44
1
  0
LINE
  5
148
100
AcDbEntity
  8
1kx1
  6
ByLayer
 62
  256
370
   -1
100
AcDbLine
 10
211
 20
211
 11
221
 21
211
  0
LINE
  5
149
100
AcDbEntity
  8
1kx1
  6
ByLayer
 62
  256
370
   -1
100
AcDbLine
 10
221
 20
211
 11
231
 21
211
  0
MTEXT
  5
14A
100
AcDbEntity
  8
1kx1
  6
ByLayer
 62
  256
370
   -1
100
AcDbMText
 10
214
 20
216
 30
0
 40
3.5
 41
0.7777777777777778
 71
    1
 72
    1
  1
1
  7
unicode
210
0
220
0
230
1
 50
0
 73
    2
 44
1
  0
LINE
  5
14B
100
AcDbEntity
  8
1kx1
  6
ByLayer
 62
  256
370
   -1
100
AcDbLine
 10
211
 20
171
 11
196
 21
171
  0
LINE
  5
14C
100
AcDbEntity
  8
1kx1
  6
ByLayer
 62
  256
370
   -1
100
AcDbLine
 10
211
 20
154
 11
225
 21
154
  0
LINE
  5
14D
100
AcDbEntity
  8
1kx1
  6
ByLayer
 62
  256
370
   -1
100
AcDbLine
 10
226
 20
154
 11
225
 21
154
  0
LINE
  5
14E
100
AcDbEntity
  8
1kx1
  6
ByLayer
 62
  256
370
   -1
100
AcDbLine
 10
226
 20
154
 11
226
 21
146
  0
LINE
  5
14F
100
AcDbEntity
  8
1kx1
  6
ByLayer
 62
  256
370
   -1
100
AcDbLine
 10
226
 20
146
 11
221
 21
146
  0
LINE
  5
150
100
AcDbEntity
  8
1kx1
  6
ByLayer
 62
  256
370
   -1
100
AcDbLine
 10
221
 20
146
 11
226
 21
146
  0
LINE
  5
151
100
AcDbEntity
  8
1kx1
  6
ByLayer
 62
  256
370
   -1
100
AcDbLine
 10
226
 20
146
 11
230
 21
146
  0
LINE
  5
152
100
AcDbEntity
  8
1kx1
  6
ByLayer
 62
  256
370
   -1
100
AcDbLine
 10
230
 20
146
 11
231
 21
146
  0
MTEXT
  5
153
100
AcDbEntity
  8
1kx1
  6
ByLayer
 62
  256
370
   -1
100
AcDbMText
 10
201.5
 20
163.5
 30
0
 40
3.5
 41
6.999999999999999
 71
    1
 72
    1
  1
Vcc
  7
unicode
210
0
220
0
230
1
 50
0
 73
    2
 44
1
  0
MTEXT
  5
154
100
AcDbEntity
  8
1kx1
  6
ByLayer
 62
  256
370
   -1
100
AcDbMText
 10
200.7777777777778
 20
155.5
 30
0
 40
3.5
 41
8.166666666666666
 71
    1
 72
    1
  1
GND
  7
unicode
210
0
220
0
230
1
 50
0
 73
    2
 44
1
  0
LINE
  5
155
100
AcDbEntity
  8
1kx1
  6
ByLayer
 62
  256
370
   -1
100
AcDbLine
 10
231
 20
211
 11
239.6602540378444
 21
216
  0
LINE
  5
156
100
AcDbEntity
  8
1kx1
  6
ByLayer
 62
  256
370
   -1
100
AcDbLine
 10
176
 20
221
 11
161
 21
221
  0
LINE
  5
157
100
AcDbEntity
  8
1kx1
  6
ByLayer
 62
  256
370
   -1
100
AcDbLine
 10
161
 20
221
 11
161
 21
141
  0
CIRCLE
  5
158
100
AcDbEntity
  8
1kx1
  6
ByLayer
 62
  256
370
   -1
100
AcDbCircle
 10
161
 20
133
 40
1
  0
LINE
  5
159
100
AcDbEntity
  8
1kx1
  6
ByLayer
 62
  256
370
   -1
100
AcDbLine
 10
161
 20
141
 11
161
 21
134
  0
CIRCLE
  5
15A
100
AcDbEntity
  8
1kx1
  6
ByLayer
 62
  256
370
   -1
100
AcDbCircle
 10
161
 20
126
 40
1
  0
MTEXT
  5
15B
100
AcDbEntity
  8
1kx1
  6
ByLayer
 62
  256
370
   -1
100
AcDbMText
 10
155.0555555555556
 20
138.5
 30
0
 40
3.5
 41
3.5
 71
    1
 72
    1
  1
13
  7
unicode
210
0
220
0
230
1
 50
0
 73
    2
 44
1
  0
MTEXT
  5
15C
100
AcDbEntity
  8
1kx1
  6
ByLayer
 62
  256
370
   -1
100
AcDbMText
 10
155.0555555555556
 20
131.5
 30
0
 40
3.5
 41
3.888888888888889
 71
    1
 72
    1
  1
14
  7
unicode
210
0
220
0
230
1
 50
0
 73
    2
 44
1
  0
MTEXT
  5
15D
100
AcDbEntity
  8
1kx1
  6
ByLayer
 62
  256
370
   -1
100
AcDbMText
 10
155.0555555555556
 20
124.5
 30
0
 40
3.5
 41
3.5
 71
    1
 72
    1
  1
15\P
  7
unicode
210
0
220
0
230
1
 50
0
 73
    2
 44
1
  0
LINE
  5
15E
100
AcDbEntity
  8
1kx1
  6
ByLayer
 62
  256
370
   -1
100
AcDbLine
 10
160
 20
133
 11
150
 21
133
  0
LINE
  5
15F
100
AcDbEntity
  8
1kx1
  6
ByLayer
 62
  256
370
   -1
100
AcDbLine
 10
160
 20
126
 11
150
 21
126
  0
LINE
  5
160
100
AcDbEntity
  8
1kx1
  6
ByLayer
 62
  256
370
   -1
100
AcDbLine
 10
161
 20
132
 11
161
 21
127
  0
LINE
  5
161
100
AcDbEntity
  8
1kx1
  6
ByLayer
 62
  256
370
   -1
100
AcDbLine
 10
176
 20
111
 11
161
 21
111
  0
MTEXT
  5
162
100
AcDbEntity
  8
1kx1
  6
ByLayer
 62
  256
370
   -1
100
AcDbMText
 10
201
 20
211
 30
0
 40
3.5
 41
5.055555555555555
 71
    1
 72
    1
  1
DO
  7
unicode
210
0
220
0
230
1
 50
0
 73
    2
 44
1
  0
LINE
  5
163
100
AcDbEntity
  8
abus
  6
ByLayer
 62
  256
370
   -1
100
AcDbLine
 10
147
 20
230
 11
155.6602540378444
 21
235
  0
MTEXT
  5
164
100
AcDbEntity
  8
abus
  6
ByLayer
 62
  256
370
   -1
100
AcDbMText
 10
144
 20
237
 30
0
 40
4.5
 41
4.5
 71
    1
 72
    1
  1
10\P
  7
unicode
210
0
220
0
230
1
 50
0
 73
    2
 44
1
  0
LINE
  5
165
100
AcDbEntity
  8
abus
  6
ByLayer
 62
  256
370
   -1
100
AcDbLine
 10
151
 20
270
 11
151
 21
147
  0
LINE
  5
166
100
AcDbEntity
  8
dbus
  6
ByLayer
 62
  256
370
   -1
100
AcDbLine
 10
240
 20
213
 11
240
 21
280
  0
LINE
  5
167
100
AcDbEntity
  8
smol wires
  6
ByLayer
 62
  256
370
   -1
100
AcDbLine
 10
142
 20
126
 11
142
 21
280
  0
LINE
  5
168
100
AcDbEntity
  8
smol wires
  6
ByLayer
 62
  256
370
   -1
100
AcDbLine
 10
150
 20
133
 11
137
 21
133
  0
LINE
  5
169
100
AcDbEntity
  8
smol wires
  6
ByLayer
 62
  256
370
   -1
100
AcDbLine
 10
137
 20
133
 11
137
 21
260
  0
LINE
  5
16A
100
AcDbEntity
  8
smol wires
  6
ByLayer
 62
  256
370
   -1
100
AcDbLine
 10
142
 20
126
 11
142
 21
119
  0
LWPOLYLINE
  5
16B
100
AcDbEntity
  8
1kx1
  6
ByLayer
 62
  256
370
   -1
100
AcDbPolyline
 90
    4
 70
    1
 43
0
 10
216
 20
158
 10
232
 20
158
 10
232
 20
164
 10
216
 20
164
  0
LINE
  5
16C
100
AcDbEntity
  8
1kx1
  6
ByLayer
 62
  256
370
   -1
100
AcDbLine
 10
211
 20
161
 11
216
 21
161
  0
LEADER
  5
16D
100
AcDbEntity
  8
1kx1
  6
ByLayer
 62
  256
370
   -1
100
AcDbLeader
  3
Standard
 71
    1
 72
    0
 73
    3
 74
    0
 75
    0
 40
1
 41
10
 76
2
 76
2
 10
241
 20
161
 30
0
 10
238
 20
161
 30
0
  0
LINE
  5
16E
100
AcDbEntity
  8
1kx1
  6
ByLayer
 62
  256
370
   -1
100
AcDbLine
 10
238
 20
161
 11
232
 21
161
  0
MTEXT
  5
16F
100
AcDbEntity
  8
1kx1
  6
ByLayer
 62
  256
370
   -1
100
AcDbMText
 10
216.2777777777778
 20
169.5
 30
0
 40
3.5
 41
11.56944444444444
 71
    1
 72
    1
  1
R1 1K
  7
unicode
210
0
220
0
230
1
 50
0
 73
    2
 44
1
  0
MTEXT
  5
170
100
AcDbEntity
  8
1kx1
  6
ByLayer
 62
  256
370
   -1
100
AcDbMText
 10
232.2777777777778
 20
169.5
 30
0
 40
3.5
 41
7.388888888888889
 71
    1
 72
    1
  1
+5В
  7
unicode
210
0
220
0
230
1
 50
0
 73
    2
 44
1
  0
LWPOLYLINE
  5
171
100
AcDbEntity
  8
dashed
  6
ByLayer
 62
  256
370
   -1
100
AcDbPolyline
 90
    4
 70
    1
 43
0
 10
130
 20
250
 10
245
 20
250
 10
245
 20
100
 10
130
 20
100
  0
LWPOLYLINE
  5
172
100
AcDbEntity
  8
dashed
  6
ByLayer
 62
  256
370
   -1
100
AcDbPolyline
 90
    4
 70
    1
 43
0
 10
250
 20
250
 10
365
 20
250
 10
365
 20
100
 10
250
 20
100
  0
MTEXT
  5
173
100
AcDbEntity
  8
1kx1
  6
ByLayer
 62
  256
370
   -1
100
AcDbMText
 10
165.3333333333333
 20
127.5
 30
0
 40
3.5
 41
4.66806834161198
 71
    1
 72
    1
  1
CS
  7
unicode
210
0
220
0
230
1
 50
0
 73
    2
 44
1
  0
MTEXT
  5
174
100
AcDbEntity
  8
1kx1
  6
ByLayer
 62
  256
370
   -1
100
AcDbMText
 10
284.7777777777778
 20
134.5
 30
0
 40
3.5
 41
5.833333333333334
 71
    1
 72
    1
  1
WE
  7
unicode
210
0
220
0
230
1
 50
0
 73
    2
 44
1
  0
MTEXT
  5
175
100
AcDbEntity
  8
1kx1
  6
ByLayer
 62
  256
370
   -1
100
AcDbMText
 10
285.3333333333333
 20
127.5
 30
0
 40
3.5
 41
4.66806834161198
 71
    1
 72
    1
  1
CS
  7
unicode
210
0
220
0
230
1
 50
0
 73
    2
 44
1
  0
LINE
  5
176
100
AcDbEntity
  8
1kx1
  6
ByLayer
 62
  256
370
   -1
100
AcDbLine
 10
290.6
 20
135.4
 11
284.8
 21
135.4
  0
LINE
  5
177
100
AcDbEntity
  8
1kx1
  6
ByLayer
 62
  256
370
   -1
100
AcDbLine
 10
290.6
 20
128.3
 11
284.8000000000001
 21
128.3
  0
MTEXT
  5
178
100
AcDbEntity
  8
1kx1
  6
ByLayer
 62
  256
370
   -1
100
AcDbMText
 10
164.7777777777779
 20
134.5
 30
0
 40
3.5
 41
5.833333333333334
 71
    1
 72
    1
  1
WE
  7
unicode
210
0
220
0
230
1
 50
0
 73
    2
 44
1
  0
LINE
  5
179
100
AcDbEntity
  8
1kx1
  6
ByLayer
 62
  256
370
   -1
100
AcDbLine
 10
170.6
 20
135.4
 11
164.8000000000001
 21
135.4
  0
LINE
  5
17A
100
AcDbEntity
  8
1kx1
  6
ByLayer
 62
  256
370
   -1
100
AcDbLine
 10
170.6000000000001
 20
128.3
 11
164.8000000000001
 21
128.3
  0
LINE
  5
17B
100
AcDbEntity
  8
abus
  6
ByLayer
 62
  256
370
   -1
100
AcDbLine
 10
310
 20
268
 11
318.6602540378444
 21
273
  0
LINE
  5
17C
100
AcDbEntity
  8
dbus
  6
ByLayer
 62
  256
370
   -1
100
AcDbLine
 10
310
 20
278
 11
318.6602540378444
 21
283
  0
MTEXT
  5
17D
100
AcDbEntity
  8
текст1
  6
ByLayer
 62
  256
370
   -1
100
AcDbMText
 10
248
 20
29
 30
0
 40
2.5
 41
21.38888888888889
 71
    1
 72
    1
  1
Чкалов О. В.
  7
unicode
210
0
220
0
230
1
 50
0
 73
    2
 44
1
  0
LINE
  5
17E
100
AcDbEntity
  8
decoder
  6
ByLayer
 62
  256
370
   -1
100
AcDbLine
 10
70
 20
220
 11
56
 21
220
  0
LINE
  5
17F
100
AcDbEntity
  8
decoder
  6
ByLayer
 62
  256
370
   -1
100
AcDbLine
 10
56
 20
220
 11
56
 21
178
  0
LINE
  5
180
100
AcDbEntity
  8
decoder
  6
ByLayer
 62
  256
370
   -1
100
AcDbLine
 10
56
 20
178
 11
70
 21
178
  0
MTEXT
  5
181
100
AcDbEntity
  8
decoder
  6
ByLayer
 62
  256
370
   -1
100
AcDbMText
 10
62
 20
216
 30
0
 40
3.5
 41
2.331533181323566
 71
    1
 72
    1
  1
&
  7
unicode
210
0
220
0
230
1
 50
0
 73
    2
 44
1
  0
CIRCLE
  5
182
100
AcDbEntity
  8
decoder
  6
ByLayer
 62
  256
370
   -1
100
AcDbCircle
 10
70
 20
199
 40
1
  0
LINE
  5
183
100
AcDbEntity
  8
decoder
  6
ByLayer
 62
  256
370
   -1
100
AcDbLine
 10
70
 20
220
 11
70
 21
200
  0
LINE
  5
184
100
AcDbEntity
  8
decoder
  6
ByLayer
 62
  256
370
   -1
100
AcDbLine
 10
70
 20
198
 11
70
 21
178
  0
LINE
  5
185
100
AcDbEntity
  8
decoder
  6
ByLayer
 62
  256
370
   -1
100
AcDbLine
 10
56
 20
185
 11
47
 21
185
  0
LINE
  5
186
100
AcDbEntity
  8
decoder
  6
ByLayer
 62
  256
370
   -1
100
AcDbLine
 10
47
 20
185
 11
43
 21
187
  0
LINE
  5
187
100
AcDbEntity
  8
decoder
  6
ByLayer
 62
  256
370
   -1
100
AcDbLine
 10
56
 20
192
 11
47
 21
192
  0
LINE
  5
188
100
AcDbEntity
  8
decoder
  6
ByLayer
 62
  256
370
   -1
100
AcDbLine
 10
47
 20
192
 11
43
 21
194
  0
LINE
  5
189
100
AcDbEntity
  8
decoder
  6
ByLayer
 62
  256
370
   -1
100
AcDbLine
 10
56
 20
199
 11
47
 21
199
  0
LINE
  5
18A
100
AcDbEntity
  8
decoder
  6
ByLayer
 62
  256
370
   -1
100
AcDbLine
 10
47
 20
199
 11
43
 21
201
  0
LINE
  5
18B
100
AcDbEntity
  8
decoder
  6
ByLayer
 62
  256
370
   -1
100
AcDbLine
 10
56
 20
206
 11
47
 21
206
  0
LINE
  5
18C
100
AcDbEntity
  8
decoder
  6
ByLayer
 62
  256
370
   -1
100
AcDbLine
 10
47
 20
206
 11
43
 21
208
  0
LINE
  5
18D
100
AcDbEntity
  8
decoder
  6
ByLayer
 62
  256
370
   -1
100
AcDbLine
 10
56
 20
213
 11
47
 21
213
  0
LINE
  5
18E
100
AcDbEntity
  8
decoder
  6
ByLayer
 62
  256
370
   -1
100
AcDbLine
 10
47
 20
213
 11
43
 21
215
  0
MTEXT
  5
18F
100
AcDbEntity
  8
decoder
  6
ByLayer
 62
  256
370
   -1
100
AcDbMText
 10
58
 20
160
 30
0
 40
3.5
 41
0.7777777777777778
 71
    1
 72
    1
  1
1
  7
unicode
210
0
220
0
230
1
 50
0
 73
    2
 44
1
  0
LINE
  5
190
100
AcDbEntity
  8
decoder
  6
ByLayer
 62
  256
370
   -1
100
AcDbLine
 10
56
 20
153
 11
47
 21
153
  0
LINE
  5
191
100
AcDbEntity
  8
decoder
  6
ByLayer
 62
  256
370
   -1
100
AcDbLine
 10
47
 20
153
 11
43
 21
155
  0
POINT
  5
192
100
AcDbEntity
  8
dotsbig
  6
ByLayer
 62
  256
370
   -1
100
AcDbPoint
 10
52
 20
153
  0
LWPOLYLINE
  5
193
100
AcDbEntity
  8
decoder
  6
ByLayer
 62
  256
370
   -1
100
AcDbPolyline
 90
    4
 70
    1
 43
0
 10
92
 20
203
 10
106
 20
203
 10
106
 20
182
 10
92
 20
182
  0
MTEXT
  5
194
100
AcDbEntity
  8
decoder
  6
ByLayer
 62
  256
370
   -1
100
AcDbMText
 10
94
 20
200
 30
0
 40
3.5
 41
0.7777777777777778
 71
    1
 72
    1
  1
1
  7
unicode
210
0
220
0
230
1
 50
0
 73
    2
 44
1
  0
LINE
  5
195
100
AcDbEntity
  8
decoder
  6
ByLayer
 62
  256
370
   -1
100
AcDbLine
 10
71
 20
199
 11
92
 21
199
  0
CIRCLE
  5
196
100
AcDbEntity
  8
decoder
  6
ByLayer
 62
  256
370
   -1
100
AcDbCircle
 10
70
 20
153
 40
1
  0
LINE
  5
197
100
AcDbEntity
  8
decoder
  6
ByLayer
 62
  256
370
   -1
100
AcDbLine
 10
56
 20
153
 11
56
 21
163
  0
LINE
  5
198
100
AcDbEntity
  8
decoder
  6
ByLayer
 62
  256
370
   -1
100
AcDbLine
 10
56
 20
163
 11
56
 21
153
  0
LINE
  5
199
100
AcDbEntity
  8
decoder
  6
ByLayer
 62
  256
370
   -1
100
AcDbLine
 10
56
 20
153
 11
56
 21
143
  0
LINE
  5
19A
100
AcDbEntity
  8
decoder
  6
ByLayer
 62
  256
370
   -1
100
AcDbLine
 10
56
 20
143
 11
56
 21
142
  0
LINE
  5
19B
100
AcDbEntity
  8
decoder
  6
ByLayer
 62
  256
370
   -1
100
AcDbLine
 10
56
 20
142
 11
70
 21
142
  0
LINE
  5
19C
100
AcDbEntity
  8
decoder
  6
ByLayer
 62
  256
370
   -1
100
AcDbLine
 10
70
 20
142
 11
70
 21
152
  0
LINE
  5
19D
100
AcDbEntity
  8
decoder
  6
ByLayer
 62
  256
370
   -1
100
AcDbLine
 10
70
 20
154
 11
70
 21
163
  0
LINE
  5
19E
100
AcDbEntity
  8
decoder
  6
ByLayer
 62
  256
370
   -1
100
AcDbLine
 10
70
 20
163
 11
56
 21
163
  0
LWPOLYLINE
  5
19F
100
AcDbEntity
  8
decoder
  6
ByLayer
 62
  256
370
   -1
100
AcDbPolyline
 90
    4
 70
    1
 43
0
 10
92
 20
170
 10
106
 20
170
 10
106
 20
149
 10
92
 20
149
  0
MTEXT
  5
1A0
100
AcDbEntity
  8
decoder
  6
ByLayer
 62
  256
370
   -1
100
AcDbMText
 10
94
 20
167
 30
0
 40
3.5
 41
0.7777777777777778
 71
    1
 72
    1
  1
1
  7
unicode
210
0
220
0
230
1
 50
0
 73
    2
 44
1
  0
LINE
  5
1A1
100
AcDbEntity
  8
decoder
  6
ByLayer
 62
  256
370
   -1
100
AcDbLine
 10
71
 20
153
 11
92
 21
153
  0
LINE
  5
1A2
100
AcDbEntity
  8
decoder
  6
ByLayer
 62
  256
370
   -1
100
AcDbLine
 10
92
 20
166
 11
89
 21
166
  0
LINE
  5
1A3
100
AcDbEntity
  8
decoder
  6
ByLayer
 62
  256
370
   -1
100
AcDbLine
 10
92
 20
186
 11
79
 21
186
  0
LINE
  5
1A4
100
AcDbEntity
  8
decoder
  6
ByLayer
 62
  256
370
   -1
100
AcDbLine
 10
89
 20
166
 11
84
 21
166
  0
LINE
  5
1A5
100
AcDbEntity
  8
decoder
  6
ByLayer
 62
  256
370
   -1
100
AcDbLine
 10
84
 20
166
 11
84
 21
199
  0
POINT
  5
1A6
100
AcDbEntity
  8
dotsbig
  6
ByLayer
 62
  256
370
   -1
100
AcDbPoint
 10
84
 20
199
  0
LINE
  5
1A7
100
AcDbEntity
  8
abus
  6
ByLayer
 62
  256
370
   -1
100
AcDbLine
 10
43
 20
270
 11
43
 21
147
  0
LINE
  5
1A8
100
AcDbEntity
  8
abus
  6
ByLayer
 62
  256
370
   -1
100
AcDbLine
 10
40
 20
230
 11
48.66025403784439
 21
235
  0
MTEXT
  5
1A9
100
AcDbEntity
  8
abus
  6
ByLayer
 62
  256
370
   -1
100
AcDbMText
 10
39
 20
237
 30
0
 40
4.5
 41
2
 71
    1
 72
    1
  1
6
  7
unicode
210
0
220
0
230
1
 50
0
 73
    2
 44
1
  0
LINE
  5
1AA
100
AcDbEntity
  8
decoder
  6
ByLayer
 62
  256
370
   -1
100
AcDbLine
 10
106
 20
193
 11
114
 21
193
  0
LINE
  5
1AB
100
AcDbEntity
  8
decoder
  6
ByLayer
 62
  256
370
   -1
100
AcDbLine
 10
106
 20
159
 11
112
 21
159
  0
MTEXT
  5
1AC
100
AcDbEntity
  8
decoder
  6
ByLayer
 62
  256
370
   -1
100
AcDbMText
 10
108.2777777777778
 20
198.5
 30
0
 40
3.5
 41
7.390290563834203
 71
    1
 72
    1
  1
CS0
  7
unicode
210
0
220
0
230
1
 50
0
 73
    2
 44
1
  0
LINE
  5
1AD
100
AcDbEntity
  8
decoder
  6
ByLayer
 62
  256
370
   -1
100
AcDbLine
 10
114
 20
193
 11
120
 21
193
  0
LINE
  5
1AE
100
AcDbEntity
  8
decoder
  6
ByLayer
 62
  256
370
   -1
100
AcDbLine
 10
120
 20
193
 11
120
 21
126
  0
LINE
  5
1AF
100
AcDbEntity
  8
decoder
  6
ByLayer
 62
  256
370
   -1
100
AcDbLine
 10
120
 20
126
 11
150
 21
126
  0
MTEXT
  5
1B0
100
AcDbEntity
  8
decoder
  6
ByLayer
 62
  256
370
   -1
100
AcDbMText
 10
108.2777777777778
 20
164.5
 30
0
 40
3.5
 41
6.612512786056424
 71
    1
 72
    1
  1
CS1
  7
unicode
210
0
220
0
230
1
 50
0
 73
    2
 44
1
  0
LINE
  5
1B1
100
AcDbEntity
  8
decoder
  6
ByLayer
 62
  256
370
   -1
100
AcDbLine
 10
112
 20
159
 11
112
 21
106
  0
MTEXT
  5
1B2
100
AcDbEntity
  8
decoder
  6
ByLayer
 62
  256
370
   -1
100
AcDbMText
 10
48
 20
190
 30
0
 40
3.5
 41
7.000000000000001
 71
    1
 72
    1
  1
A15\P\P
  7
unicode
210
0
220
0
230
1
 50
0
 73
    2
 44
1
  0
MTEXT
  5
1B3
100
AcDbEntity
  8
decoder
  6
ByLayer
 62
  256
370
   -1
100
AcDbMText
 10
48
 20
197
 30
0
 40
3.5
 41
7.388888888888889
 71
    1
 72
    1
  1
A14\P
  7
unicode
210
0
220
0
230
1
 50
0
 73
    2
 44
1
  0
MTEXT
  5
1B4
100
AcDbEntity
  8
decoder
  6
ByLayer
 62
  256
370
   -1
100
AcDbMText
 10
48
 20
204
 30
0
 40
3.5
 41
7.000000000000001
 71
    1
 72
    1
  1
A13\P
  7
unicode
210
0
220
0
230
1
 50
0
 73
    2
 44
1
  0
MTEXT
  5
1B5
100
AcDbEntity
  8
decoder
  6
ByLayer
 62
  256
370
   -1
100
AcDbMText
 10
48
 20
211
 30
0
 40
3.5
 41
7
 71
    1
 72
    1
  1
A12\P
  7
unicode
210
0
220
0
230
1
 50
0
 73
    2
 44
1
  0
MTEXT
  5
1B6
100
AcDbEntity
  8
decoder
  6
ByLayer
 62
  256
370
   -1
100
AcDbMText
 10
48
 20
218
 30
0
 40
3.5
 41
6.222222222222222
 71
    1
 72
    1
  1
A11
  7
unicode
210
0
220
0
230
1
 50
0
 73
    2
 44
1
  0
MTEXT
  5
1B7
100
AcDbEntity
  8
decoder
  6
ByLayer
 62
  256
370
   -1
100
AcDbMText
 10
48
 20
150.5
 30
0
 40
3.5
 41
7
 71
    1
 72
    1
  1
A10\P
  7
unicode
210
0
220
0
230
1
 50
0
 73
    2
 44
1
  0
MTEXT
  5
1B8
100
AcDbEntity
  8
dbus
  6
ByLayer
 62
  256
370
   -1
100
AcDbMText
 10
313
 20
286.5
 30
0
 40
4.5
 41
2
 71
    1
 72
    1
  1
8
  7
unicode
210
0
220
0
230
1
 50
0
 73
    2
 44
1
  0
MTEXT
  5
1B9
100
AcDbEntity
  8
abus
  6
ByLayer
 62
  256
370
   -1
100
AcDbMText
 10
311
 20
277
 30
0
 40
4.5
 41
4.5
 71
    1
 72
    1
  1
16\P
  7
unicode
210
0
220
0
230
1
 50
0
 73
    2
 44
1
  0
CIRCLE
  5
1BA
100
AcDbEntity
  8
abus
  6
ByLayer
 62
  256
370
   -1
100
AcDbCircle
 10
271
 20
270
 40
1
  0
CIRCLE
  5
1BB
100
AcDbEntity
  8
abus
  6
ByLayer
 62
  256
370
   -1
100
AcDbCircle
 10
271
 20
270
 40
0
  0
CIRCLE
  5
1BC
100
AcDbEntity
  8
abus
  6
ByLayer
 62
  256
370
   -1
100
AcDbCircle
 10
271
 20
270
 40
0.4242640687119446
  0
CIRCLE
  5
1BD
100
AcDbEntity
  8
abus
  6
ByLayer
 62
  256
370
   -1
100
AcDbCircle
 10
151
 20
270
 40
1
  0
CIRCLE
  5
1BE
100
AcDbEntity
  8
abus
  6
ByLayer
 62
  256
370
   -1
100
AcDbCircle
 10
151
 20
270
 40
0.4242640687119446
  0
CIRCLE
  5
1BF
100
AcDbEntity
  8
abus
  6
ByLayer
 62
  256
370
   -1
100
AcDbCircle
 10
43
 20
270
 40
1
  0
CIRCLE
  5
1C0
100
AcDbEntity
  8
abus
  6
ByLayer
 62
  256
370
   -1
100
AcDbCircle
 10
43
 20
270
 40
0.4242640687119446
  0
CIRCLE
  5
1C1
100
AcDbEntity
  8
cbus
  6
ByLayer
 62
  256
370
   -1
100
AcDbCircle
 10
257
 20
260
 40
1
  0
CIRCLE
  5
1C2
100
AcDbEntity
  8
cbus
  6
ByLayer
 62
  256
370
   -1
100
AcDbCircle
 10
257
 20
260
 40
0.4242640687119446
  0
CIRCLE
  5
1C3
100
AcDbEntity
  8
cbus
  6
ByLayer
 62
  256
370
   -1
100
AcDbCircle
 10
137
 20
260
 40
1
  0
CIRCLE
  5
1C4
100
AcDbEntity
  8
cbus
  6
ByLayer
 62
  256
370
   -1
100
AcDbCircle
 10
137
 20
260
 40
0.4242640687119446
  0
CIRCLE
  5
1C5
100
AcDbEntity
  8
dbus
  6
ByLayer
 62
  256
370
   -1
100
AcDbCircle
 10
262
 20
280
 40
1
  0
CIRCLE
  5
1C6
100
AcDbEntity
  8
dbus
  6
ByLayer
 62
  256
370
   -1
100
AcDbCircle
 10
262
 20
280
 40
0.4242640687119446
  0
CIRCLE
  5
1C7
100
AcDbEntity
  8
dbus
  6
ByLayer
 62
  256
370
   -1
100
AcDbCircle
 10
360
 20
280
 40
1
  0
CIRCLE
  5
1C8
100
AcDbEntity
  8
dbus
  6
ByLayer
 62
  256
370
   -1
100
AcDbCircle
 10
360
 20
280
 40
0.4242640687119446
  0
CIRCLE
  5
1C9
100
AcDbEntity
  8
dbus
  6
ByLayer
 62
  256
370
   -1
100
AcDbCircle
 10
142
 20
280
 40
1
  0
CIRCLE
  5
1CA
100
AcDbEntity
  8
dbus
  6
ByLayer
 62
  256
370
   -1
100
AcDbCircle
 10
142
 20
280
 40
0.4242640687119446
  0
CIRCLE
  5
1CB
100
AcDbEntity
  8
dbus
  6
ByLayer
 62
  256
370
   -1
100
AcDbCircle
 10
240
 20
280
 40
1
  0
CIRCLE
  5
1CC
100
AcDbEntity
  8
dbus
  6
ByLayer
 62
  256
370
   -1
100
AcDbCircle
 10
240
 20
280
 40
0.4242640687119446
  0
LINE
  5
1CD
100
AcDbEntity
  8
1kx1
  6
ByLayer
 62
  256
370
   -1
100
AcDbLine
 10
161
 20
125
 11
161
 21
119
  0
LINE
  5
1CE
100
AcDbEntity
  8
1kx1
  6
ByLayer
 62
  256
370
   -1
100
AcDbLine
 10
161
 20
119
 11
150
 21
119
  0
LINE
  5
1CF
100
AcDbEntity
  8
1kx1
  6
ByLayer
 62
  256
370
   -1
100
AcDbLine
 10
161
 20
111
 11
161
 21
119
  0
LINE
  5
1D0
100
AcDbEntity
  8
1kx1
  6
ByLayer
 62
  256
370
   -1
100
AcDbLine
 10
281
 20
111
 11
281
 21
119
  0
LINE
  5
1D1
100
AcDbEntity
  8
1kx1
  6
ByLayer
 62
  256
370
   -1
100
AcDbLine
 10
281
 20
125
 11
281
 21
119
  0
LINE
  5
1D2
100
AcDbEntity
  8
1kx1
  6
ByLayer
 62
  256
370
   -1
100
AcDbLine
 10
281
 20
119
 11
270
 21
119
  0
LINE
  5
1D3
100
AcDbEntity
  8
smol wires
  6
ByLayer
 62
  256
370
   -1
100
AcDbLine
 10
262
 20
124
 11
270
 21
119
  0
LINE
  5
1D4
100
AcDbEntity
  8
decoder
  6
ByLayer
 62
  256
370
   -1
100
AcDbLine
 10
272
 20
106
 11
272
 21
126
  0
LINE
  5
1D5
100
AcDbEntity
  8
1kx1
  6
ByLayer
 62
  256
370
   -1
100
AcDbLine
 10
280
 20
126
 11
272
 21
126
  0
LINE
  5
1D6
100
AcDbEntity
  8
decoder
  6
ByLayer
 62
  256
370
   -1
100
AcDbLine
 10
112
 20
106
 11
272
 21
106
  0
LINE
  5
1D7
100
AcDbEntity
  8
1kx1
  6
ByLayer
 62
  256
370
   -1
100
AcDbLine
 10
161
 20
119
 11
150
 21
119
  0
LINE
  5
1D8
100
AcDbEntity
  8
smol wires
  6
ByLayer
 62
  256
370
   -1
100
AcDbLine
 10
142
 20
124
 11
150
 21
119
  0
LINE
  5
1D9
100
AcDbEntity
  8
cbus
  6
ByLayer
 62
  256
370
   -1
100
AcDbLine
 10
310
 20
258
 11
318.6602540378444
 21
263
  0
MTEXT
  5
1DA
100
AcDbEntity
  8
cbus
  6
ByLayer
 62
  256
370
   -1
100
AcDbMText
 10
311
 20
267
 30
0
 40
4.5
 41
4.5
 71
    1
 72
    1
  1
10
  7
unicode
210
0
220
0
230
1
 50
0
 73
    2
 44
1
  0
LINE
  5
1DB
100
AcDbEntity
  8
decoder
  6
ByLayer
 62
  256
370
   -1
100
AcDbLine
 10
79
 20
186
 11
79
 21
173
  0
LINE
  5
1DC
100
AcDbEntity
  8
decoder
  6
ByLayer
 62
  256
370
   -1
100
AcDbLine
 10
52
 20
153
 11
52
 21
173
  0
LINE
  5
1DD
100
AcDbEntity
  8
decoder
  6
ByLayer
 62
  256
370
   -1
100
AcDbLine
 10
79
 20
173
 11
52
 21
173
  0
MTEXT
  5
1DE
100
AcDbEntity
  8
1kx1
  6
ByLayer
 62
  256
370
   -1
100
AcDbMText
 10
182
 20
215
 30
0
 40
3.5
 41
7.777777777777779
 71
    1
 72
    1
  1
DD5
  7
unicode
210
0
220
0
230
1
 50
0
 73
    2
 44
1
  0
MTEXT
  5
1DF
100
AcDbEntity
  8
1kx1
  6
ByLayer
 62
  256
370
   -1
100
AcDbMText
 10
301.7777777777778
 20
215.5
 30
0
 40
3.5
 41
7.777777777777779
 71
    1
 72
    1
  1
DD6
  7
unicode
210
0
220
0
230
1
 50
0
 73
    2
 44
1
  0
MTEXT
  5
1E0
100
AcDbEntity
  8
decoder
  6
ByLayer
 62
  256
370
   -1
100
AcDbMText
 10
59
 20
225
 30
0
 40
3.5
 41
7
 71
    1
 72
    1
  1
DD1
  7
unicode
210
0
220
0
230
1
 50
0
 73
    2
 44
1
  0
MTEXT
  5
1E1
100
AcDbEntity
  8
decoder
  6
ByLayer
 62
  256
370
   -1
100
AcDbMText
 10
57.77777777777777
 20
168.5
 30
0
 40
3.5
 41
7.777777777777778
 71
    1
 72
    1
  1
DD2
  7
unicode
210
0
220
0
230
1
 50
0
 73
    2
 44
1
  0
MTEXT
  5
1E2
100
AcDbEntity
  8
decoder
  6
ByLayer
 62
  256
370
   -1
100
AcDbMText
 10
95
 20
209
 30
0
 40
3.5
 41
7.777777777777779
 71
    1
 72
    1
  1
DD3\P
  7
unicode
210
0
220
0
230
1
 50
0
 73
    2
 44
1
  0
MTEXT
  5
1E3
100
AcDbEntity
  8
decoder
  6
ByLayer
 62
  256
370
   -1
100
AcDbMText
 10
94
 20
175
 30
0
 40
3.5
 41
8.166666666666666
 71
    1
 72
    1
  1
DD4
  7
unicode
210
0
220
0
230
1
 50
0
 73
    2
 44
1
  0
ENDSEC
  0
SECTION
  2
OBJECTS
  0
DICTIONARY
  5
C
330
0
100
AcDbDictionary
281
    1
  3
ACAD_GROUP
350
D
  0
DICTIONARY
  5
D
330
C
100
AcDbDictionary
281
    1
  0
PLOTSETTINGS
  5
1E4
100
AcDbPlotSettings
  6
1x1
 40
0
 41
0
 42
0
 43
0
  0
ENDSEC
  0
EOF
